<mxfile host="app.diagrams.net" modified="2023-04-17T09:33:39.895Z" agent="Mozilla/5.0 (Windows NT 10.0; Win64; x64) AppleWebKit/537.36 (KHTML, like Gecko) Chrome/112.0.0.0 Safari/537.36" etag="uzMFYwie4NENYEc088Zw" version="21.1.8" type="github" pages="7">
  <diagram name="商品" id="efa7a0a1-bf9b-a30e-e6df-94a7791c09e9">
    <mxGraphModel dx="1050" dy="1786" grid="1" gridSize="10" guides="1" tooltips="1" connect="0" arrows="1" fold="1" page="1" pageScale="1" pageWidth="826" pageHeight="1169" background="none" math="0" shadow="0">
      <root>
        <mxCell id="0" />
        <mxCell id="1" parent="0" />
        <mxCell id="GjRLE1qKXkt9nsyT0Dci-114" value="&lt;p style=&quot;margin: 4px 0px 0px; text-align: center;&quot;&gt;&lt;b&gt;&lt;u&gt;AttrSystem&lt;/u&gt;&lt;/b&gt;&lt;br&gt;&lt;/p&gt;&lt;p style=&quot;margin: 4px 0px 0px; text-align: center;&quot;&gt;&lt;b&gt;&lt;u&gt;属性系统&lt;/u&gt;&lt;/b&gt;&lt;/p&gt;&lt;hr&gt;&lt;p style=&quot;margin: 0px; margin-left: 8px;&quot;&gt;companyId&amp;nbsp; &amp;nbsp;公司名称&lt;/p&gt;&lt;p style=&quot;margin: 0px; margin-left: 8px;&quot;&gt;code&amp;nbsp; &amp;nbsp; &amp;nbsp; &amp;nbsp; &amp;nbsp; &amp;nbsp; 编码&lt;br&gt;&lt;/p&gt;&lt;p style=&quot;margin: 0px; margin-left: 8px;&quot;&gt;name&amp;nbsp; &amp;nbsp; &amp;nbsp; &amp;nbsp; &amp;nbsp; &amp;nbsp;名称&lt;/p&gt;" style="verticalAlign=top;align=left;overflow=fill;fontSize=12;fontFamily=Helvetica;html=1;strokeColor=#003366;shadow=1;fillColor=#D4E1F5;fontColor=#003366" parent="1" vertex="1">
          <mxGeometry x="180" y="115" width="160" height="100" as="geometry" />
        </mxCell>
        <mxCell id="GjRLE1qKXkt9nsyT0Dci-115" value="&lt;p style=&quot;margin: 4px 0px 0px; text-align: center;&quot;&gt;&lt;b&gt;&lt;u&gt;AttrClass&lt;/u&gt;&lt;/b&gt;&lt;br&gt;&lt;/p&gt;&lt;p style=&quot;margin: 4px 0px 0px; text-align: center;&quot;&gt;&lt;b&gt;&lt;u&gt;属性分类&lt;/u&gt;&lt;/b&gt;&lt;br&gt;&lt;/p&gt;&lt;hr&gt;&lt;p style=&quot;margin: 0px; margin-left: 8px;&quot;&gt;systemId&amp;nbsp; &amp;nbsp; &amp;nbsp;属性系统id&lt;/p&gt;&lt;p style=&quot;margin: 0px; margin-left: 8px;&quot;&gt;code&amp;nbsp; &amp;nbsp; &amp;nbsp; &amp;nbsp; &amp;nbsp; &amp;nbsp; 编码&lt;br&gt;&lt;/p&gt;&lt;p style=&quot;margin: 0px; margin-left: 8px;&quot;&gt;name&amp;nbsp; &amp;nbsp; &amp;nbsp; &amp;nbsp; &amp;nbsp; &amp;nbsp;名称&lt;/p&gt;" style="verticalAlign=top;align=left;overflow=fill;fontSize=12;fontFamily=Helvetica;html=1;strokeColor=#003366;shadow=1;fillColor=#D4E1F5;fontColor=#003366" parent="1" vertex="1">
          <mxGeometry x="470" y="105" width="160" height="100" as="geometry" />
        </mxCell>
        <mxCell id="GjRLE1qKXkt9nsyT0Dci-116" value="Use" style="endArrow=open;endSize=12;dashed=1;exitX=0;exitY=0.5;exitDx=0;exitDy=0;entryX=1.023;entryY=0.404;entryDx=0;entryDy=0;entryPerimeter=0;" parent="1" source="GjRLE1qKXkt9nsyT0Dci-115" target="GjRLE1qKXkt9nsyT0Dci-114" edge="1">
          <mxGeometry x="278.92" y="83.3599999999999" as="geometry">
            <mxPoint x="440.0000000000004" y="185.00000000000045" as="sourcePoint" />
            <mxPoint x="318.92" y="185.00000000000045" as="targetPoint" />
          </mxGeometry>
        </mxCell>
        <mxCell id="GjRLE1qKXkt9nsyT0Dci-118" style="edgeStyle=orthogonalEdgeStyle;rounded=0;orthogonalLoop=1;jettySize=auto;html=1;entryX=0.5;entryY=0;entryDx=0;entryDy=0;startArrow=diamondThin;startFill=0;endArrow=diamondThin;endFill=0;jumpSize=6;targetPerimeterSpacing=0;sourcePerimeterSpacing=0;startSize=14;endSize=14;" parent="1" source="GjRLE1qKXkt9nsyT0Dci-117" target="GjRLE1qKXkt9nsyT0Dci-115" edge="1">
          <mxGeometry relative="1" as="geometry" />
        </mxCell>
        <mxCell id="GjRLE1qKXkt9nsyT0Dci-119" value="n" style="edgeLabel;html=1;align=center;verticalAlign=middle;resizable=0;points=[];" parent="GjRLE1qKXkt9nsyT0Dci-118" vertex="1" connectable="0">
          <mxGeometry x="0.7486" y="-2" relative="1" as="geometry">
            <mxPoint x="12" y="-4" as="offset" />
          </mxGeometry>
        </mxCell>
        <mxCell id="GjRLE1qKXkt9nsyT0Dci-120" value="n" style="edgeLabel;html=1;align=center;verticalAlign=middle;resizable=0;points=[];" parent="GjRLE1qKXkt9nsyT0Dci-118" vertex="1" connectable="0">
          <mxGeometry x="-0.6657" y="-1" relative="1" as="geometry">
            <mxPoint x="11" y="10" as="offset" />
          </mxGeometry>
        </mxCell>
        <mxCell id="GjRLE1qKXkt9nsyT0Dci-121" value="category_attr_class" style="edgeLabel;html=1;align=center;verticalAlign=middle;resizable=0;points=[];" parent="GjRLE1qKXkt9nsyT0Dci-118" vertex="1" connectable="0">
          <mxGeometry x="0.3343" y="-3" relative="1" as="geometry">
            <mxPoint y="-15" as="offset" />
          </mxGeometry>
        </mxCell>
        <mxCell id="GjRLE1qKXkt9nsyT0Dci-117" value="&lt;p style=&quot;margin: 4px 0px 0px; text-align: center;&quot;&gt;&lt;b&gt;&lt;u&gt;Category&lt;/u&gt;&lt;/b&gt;&lt;/p&gt;&lt;p style=&quot;margin: 4px 0px 0px; text-align: center;&quot;&gt;&lt;b&gt;&lt;u&gt;分类&lt;/u&gt;&lt;/b&gt;&lt;br&gt;&lt;/p&gt;&lt;hr&gt;&lt;p style=&quot;margin: 0px; margin-left: 8px;&quot;&gt;&lt;span style=&quot;background-color: initial;&quot;&gt;code&amp;nbsp; &amp;nbsp; &amp;nbsp; &amp;nbsp; &amp;nbsp; &amp;nbsp; 编码&lt;/span&gt;&lt;br&gt;&lt;/p&gt;&lt;p style=&quot;margin: 0px; margin-left: 8px;&quot;&gt;name&amp;nbsp; &amp;nbsp; &amp;nbsp; &amp;nbsp; &amp;nbsp; &amp;nbsp;名称&lt;/p&gt;" style="verticalAlign=top;align=left;overflow=fill;fontSize=12;fontFamily=Helvetica;html=1;strokeColor=#003366;shadow=1;fillColor=#D4E1F5;fontColor=#003366" parent="1" vertex="1">
          <mxGeometry x="470" y="-70" width="160" height="85" as="geometry" />
        </mxCell>
        <mxCell id="GjRLE1qKXkt9nsyT0Dci-122" value="&lt;p style=&quot;margin: 4px 0px 0px; text-align: center;&quot;&gt;&lt;b&gt;&lt;u&gt;AttrAssign&lt;/u&gt;&lt;/b&gt;&lt;br&gt;&lt;/p&gt;&lt;p style=&quot;margin: 4px 0px 0px; text-align: center;&quot;&gt;&lt;b&gt;&lt;u&gt;属性分配&lt;/u&gt;&lt;/b&gt;&lt;br&gt;&lt;/p&gt;&lt;hr&gt;&lt;p style=&quot;margin: 0px; margin-left: 8px;&quot;&gt;systemId&amp;nbsp; &amp;nbsp; &amp;nbsp;属性系统id&lt;/p&gt;&lt;p style=&quot;margin: 0px; margin-left: 8px;&quot;&gt;attrClassId&amp;nbsp; &amp;nbsp;属性分类id&lt;br&gt;&lt;/p&gt;&lt;p style=&quot;margin: 0px; margin-left: 8px;&quot;&gt;spuId 商品Spu id&lt;/p&gt;&lt;p style=&quot;margin: 0px; margin-left: 8px;&quot;&gt;attributeId&amp;nbsp; &amp;nbsp; &amp;nbsp;属性项id&lt;/p&gt;&lt;p style=&quot;margin: 0px; margin-left: 8px;&quot;&gt;orderSort&amp;nbsp; &amp;nbsp; &amp;nbsp;排序&lt;br&gt;&lt;/p&gt;&lt;p style=&quot;margin: 0px; margin-left: 8px;&quot;&gt;isSaleAttr&amp;nbsp; &amp;nbsp; &amp;nbsp;是否销售属性(区分关键属性、销售属性)&lt;br&gt;&lt;/p&gt;&lt;p style=&quot;margin: 0px; margin-left: 8px;&quot;&gt;type&amp;nbsp; &amp;nbsp; &amp;nbsp; &amp;nbsp; &amp;nbsp; &amp;nbsp; &amp;nbsp;类型（分类、商品、Offer）&lt;br&gt;&lt;/p&gt;&lt;p style=&quot;margin: 0px; margin-left: 8px;&quot;&gt;isRequired&amp;nbsp; &amp;nbsp;是否必输&lt;br&gt;&lt;/p&gt;&lt;p style=&quot;margin: 0px; margin-left: 8px;&quot;&gt;fieldType&amp;nbsp; &amp;nbsp; &amp;nbsp; 属性类型（列表、文本、数字、日期）&lt;/p&gt;&lt;p style=&quot;margin: 0px; margin-left: 8px;&quot;&gt;isCustomAttrValue&amp;nbsp; &amp;nbsp; 属性值是否可自定义&lt;br&gt;&lt;/p&gt;&lt;p style=&quot;margin: 0px; margin-left: 8px;&quot;&gt;isActive&amp;nbsp; &amp;nbsp; &amp;nbsp; &amp;nbsp;是否启用&lt;/p&gt;&lt;p style=&quot;margin: 0px; margin-left: 8px;&quot;&gt;isDeleted&amp;nbsp; &amp;nbsp; &amp;nbsp;是否删除&lt;/p&gt;" style="verticalAlign=top;align=left;overflow=fill;fontSize=12;fontFamily=Helvetica;html=1;strokeColor=#003366;shadow=1;fillColor=#D4E1F5;fontColor=#003366" parent="1" vertex="1">
          <mxGeometry x="405" y="280" width="290" height="230" as="geometry" />
        </mxCell>
        <mxCell id="GjRLE1qKXkt9nsyT0Dci-123" value="" style="endArrow=open;endSize=12;startArrow=diamondThin;startSize=14;startFill=0;edgeStyle=orthogonalEdgeStyle;exitX=0.5;exitY=0;exitDx=0;exitDy=0;" parent="1" source="GjRLE1qKXkt9nsyT0Dci-122" target="GjRLE1qKXkt9nsyT0Dci-115" edge="1">
          <mxGeometry x="439.3599999999999" y="-578.8399999999997" as="geometry">
            <mxPoint x="760" y="-145.00000000000045" as="sourcePoint" />
            <mxPoint x="910" y="-145.00000000000045" as="targetPoint" />
          </mxGeometry>
        </mxCell>
        <mxCell id="GjRLE1qKXkt9nsyT0Dci-124" value="0..n" style="resizable=0;align=left;verticalAlign=top;labelBackgroundColor=#ffffff;fontSize=10;strokeColor=#003366;shadow=1;fillColor=#D4E1F5;fontColor=#003366" parent="GjRLE1qKXkt9nsyT0Dci-123" connectable="0" vertex="1">
          <mxGeometry x="-1" relative="1" as="geometry">
            <mxPoint x="15" y="-30" as="offset" />
          </mxGeometry>
        </mxCell>
        <mxCell id="GjRLE1qKXkt9nsyT0Dci-125" value="1" style="resizable=0;align=right;verticalAlign=top;labelBackgroundColor=#ffffff;fontSize=10;strokeColor=#003366;shadow=1;fillColor=#D4E1F5;fontColor=#003366" parent="GjRLE1qKXkt9nsyT0Dci-123" connectable="0" vertex="1">
          <mxGeometry x="1" relative="1" as="geometry">
            <mxPoint x="20" as="offset" />
          </mxGeometry>
        </mxCell>
        <mxCell id="GjRLE1qKXkt9nsyT0Dci-126" value="&lt;p style=&quot;margin: 4px 0px 0px; text-align: center;&quot;&gt;&lt;b&gt;&lt;u&gt;Attribute&lt;/u&gt;&lt;/b&gt;&lt;br&gt;&lt;/p&gt;&lt;p style=&quot;margin: 4px 0px 0px; text-align: center;&quot;&gt;&lt;b&gt;&lt;u&gt;属性项&lt;/u&gt;&lt;/b&gt;&lt;br&gt;&lt;/p&gt;&lt;hr&gt;&lt;p style=&quot;margin: 0px; margin-left: 8px;&quot;&gt;systemId&amp;nbsp; &amp;nbsp; &amp;nbsp;属性系统id&lt;/p&gt;&lt;p style=&quot;margin: 0px; margin-left: 8px;&quot;&gt;code&amp;nbsp; &amp;nbsp; &amp;nbsp; &amp;nbsp; &amp;nbsp; &amp;nbsp; 编码&lt;/p&gt;&lt;p style=&quot;margin: 0px; margin-left: 8px;&quot;&gt;name&amp;nbsp; &amp;nbsp; &amp;nbsp; &amp;nbsp; &amp;nbsp; 名称&lt;br&gt;&lt;/p&gt;" style="verticalAlign=top;align=left;overflow=fill;fontSize=12;fontFamily=Helvetica;html=1;strokeColor=#003366;shadow=1;fillColor=#D4E1F5;fontColor=#003366" parent="1" vertex="1">
          <mxGeometry x="430" y="610" width="240" height="110" as="geometry" />
        </mxCell>
        <mxCell id="GjRLE1qKXkt9nsyT0Dci-127" value="Use" style="endArrow=open;endSize=12;dashed=1;html=1;rounded=0;sourcePerimeterSpacing=0;targetPerimeterSpacing=0;jumpSize=6;entryX=0.5;entryY=0;entryDx=0;entryDy=0;exitX=0.5;exitY=1;exitDx=0;exitDy=0;" parent="1" source="GjRLE1qKXkt9nsyT0Dci-122" target="GjRLE1qKXkt9nsyT0Dci-126" edge="1">
          <mxGeometry width="160" relative="1" as="geometry">
            <mxPoint x="1030" y="45" as="sourcePoint" />
            <mxPoint x="1190" y="45" as="targetPoint" />
          </mxGeometry>
        </mxCell>
        <mxCell id="GjRLE1qKXkt9nsyT0Dci-128" value="&lt;p style=&quot;margin: 4px 0px 0px; text-align: center;&quot;&gt;&lt;b&gt;&lt;u&gt;AttrValue&lt;/u&gt;&lt;/b&gt;&lt;br&gt;&lt;/p&gt;&lt;p style=&quot;margin: 4px 0px 0px; text-align: center;&quot;&gt;&lt;b&gt;&lt;u&gt;属性值&lt;/u&gt;&lt;/b&gt;&lt;br&gt;&lt;/p&gt;&lt;hr&gt;&lt;p style=&quot;margin: 0px; margin-left: 8px;&quot;&gt;systemId&amp;nbsp; &amp;nbsp; &amp;nbsp;属性系统id&lt;/p&gt;&lt;p style=&quot;margin: 0px; margin-left: 8px;&quot;&gt;attributeId&amp;nbsp; &amp;nbsp;属性项id&lt;br&gt;&lt;/p&gt;&lt;p style=&quot;margin: 0px; margin-left: 8px;&quot;&gt;code&amp;nbsp; &amp;nbsp; &amp;nbsp; &amp;nbsp; &amp;nbsp; &amp;nbsp; 编码&lt;/p&gt;&lt;p style=&quot;margin: 0px; margin-left: 8px;&quot;&gt;name&amp;nbsp; &amp;nbsp; &amp;nbsp; &amp;nbsp; &amp;nbsp; 名称&lt;br&gt;&lt;/p&gt;&lt;p style=&quot;margin: 0px; margin-left: 8px;&quot;&gt;isDefault&amp;nbsp; &amp;nbsp; &amp;nbsp;是否默认值&lt;/p&gt;" style="verticalAlign=top;align=left;overflow=fill;fontSize=12;fontFamily=Helvetica;html=1;strokeColor=#003366;shadow=1;fillColor=#D4E1F5;fontColor=#003366" parent="1" vertex="1">
          <mxGeometry x="450" y="850" width="200" height="130" as="geometry" />
        </mxCell>
        <mxCell id="GjRLE1qKXkt9nsyT0Dci-129" value="" style="endArrow=open;endSize=12;startArrow=diamondThin;startSize=14;startFill=0;edgeStyle=orthogonalEdgeStyle;exitX=0.5;exitY=0;exitDx=0;exitDy=0;entryX=0.5;entryY=1;entryDx=0;entryDy=0;" parent="1" source="GjRLE1qKXkt9nsyT0Dci-128" target="GjRLE1qKXkt9nsyT0Dci-126" edge="1">
          <mxGeometry x="449.3599999999999" y="-568.8399999999997" as="geometry">
            <mxPoint x="790" y="165" as="sourcePoint" />
            <mxPoint x="640" y="165" as="targetPoint" />
          </mxGeometry>
        </mxCell>
        <mxCell id="GjRLE1qKXkt9nsyT0Dci-130" value="0..n" style="resizable=0;align=left;verticalAlign=top;labelBackgroundColor=#ffffff;fontSize=10;strokeColor=#003366;shadow=1;fillColor=#D4E1F5;fontColor=#003366" parent="GjRLE1qKXkt9nsyT0Dci-129" connectable="0" vertex="1">
          <mxGeometry x="-1" relative="1" as="geometry">
            <mxPoint x="-29" y="-27" as="offset" />
          </mxGeometry>
        </mxCell>
        <mxCell id="GjRLE1qKXkt9nsyT0Dci-131" value="1" style="resizable=0;align=right;verticalAlign=top;labelBackgroundColor=#ffffff;fontSize=10;strokeColor=#003366;shadow=1;fillColor=#D4E1F5;fontColor=#003366" parent="GjRLE1qKXkt9nsyT0Dci-129" connectable="0" vertex="1">
          <mxGeometry x="1" relative="1" as="geometry">
            <mxPoint x="20" as="offset" />
          </mxGeometry>
        </mxCell>
        <mxCell id="GjRLE1qKXkt9nsyT0Dci-132" value="&lt;p style=&quot;margin: 4px 0px 0px; text-align: center;&quot;&gt;&lt;b&gt;&lt;u&gt;ProductAttrValue&lt;/u&gt;&lt;/b&gt;&lt;/p&gt;&lt;p style=&quot;margin: 4px 0px 0px; text-align: center;&quot;&gt;&lt;u style=&quot;&quot;&gt;&lt;b&gt;商品属性值&lt;/b&gt;&lt;br&gt;&lt;/u&gt;&lt;/p&gt;&lt;hr&gt;&lt;p style=&quot;margin: 0px; margin-left: 8px;&quot;&gt;&lt;span style=&quot;background-color: initial;&quot;&gt;spuId&amp;nbsp; &amp;nbsp; &amp;nbsp; &amp;nbsp; &amp;nbsp; &amp;nbsp;商品spuId&lt;/span&gt;&lt;br&gt;&lt;/p&gt;&lt;p style=&quot;margin: 0px; margin-left: 8px;&quot;&gt;skuId&amp;nbsp; &amp;nbsp; &amp;nbsp; &amp;nbsp; &amp;nbsp; &amp;nbsp;商品skuId&lt;/p&gt;&lt;p style=&quot;margin: 0px; margin-left: 8px;&quot;&gt;attributeId&amp;nbsp; &amp;nbsp; 属性项id&lt;br&gt;&lt;/p&gt;&lt;p style=&quot;margin: 0px; margin-left: 8px;&quot;&gt;attrValueId&amp;nbsp; &amp;nbsp;属性值id&lt;br&gt;&lt;/p&gt;&lt;p style=&quot;margin: 0px; margin-left: 8px;&quot;&gt;value&amp;nbsp; &amp;nbsp; &amp;nbsp; &amp;nbsp; &amp;nbsp; &amp;nbsp;属性值&lt;br&gt;&lt;/p&gt;&lt;p style=&quot;margin: 0px; margin-left: 8px;&quot;&gt;orderSort&amp;nbsp; &amp;nbsp; 排序&lt;br&gt;&lt;/p&gt;&lt;p style=&quot;margin: 0px; margin-left: 8px;&quot;&gt;isSaleAttr&amp;nbsp; &amp;nbsp; 是否销售属性&lt;br&gt;&lt;/p&gt;" style="verticalAlign=top;align=left;overflow=fill;fontSize=12;fontFamily=Helvetica;html=1;strokeColor=#003366;shadow=1;fillColor=#D4E1F5;fontColor=#003366" parent="1" vertex="1">
          <mxGeometry x="160" y="760" width="160" height="160" as="geometry" />
        </mxCell>
        <mxCell id="GjRLE1qKXkt9nsyT0Dci-133" value="Use" style="endArrow=open;endSize=12;dashed=1;html=1;rounded=0;sourcePerimeterSpacing=0;targetPerimeterSpacing=0;jumpSize=6;exitX=1;exitY=0.25;exitDx=0;exitDy=0;entryX=0;entryY=0.75;entryDx=0;entryDy=0;" parent="1" source="GjRLE1qKXkt9nsyT0Dci-132" target="GjRLE1qKXkt9nsyT0Dci-126" edge="1">
          <mxGeometry width="160" relative="1" as="geometry">
            <mxPoint x="550" y="590" as="sourcePoint" />
            <mxPoint x="710" y="590" as="targetPoint" />
          </mxGeometry>
        </mxCell>
        <mxCell id="GjRLE1qKXkt9nsyT0Dci-134" value="Use" style="endArrow=open;endSize=12;dashed=1;html=1;rounded=0;sourcePerimeterSpacing=0;targetPerimeterSpacing=0;jumpSize=6;entryX=0;entryY=0.5;entryDx=0;entryDy=0;exitX=1;exitY=0.75;exitDx=0;exitDy=0;" parent="1" source="GjRLE1qKXkt9nsyT0Dci-132" target="GjRLE1qKXkt9nsyT0Dci-128" edge="1">
          <mxGeometry width="160" relative="1" as="geometry">
            <mxPoint x="560" y="650" as="sourcePoint" />
            <mxPoint x="720" y="650" as="targetPoint" />
          </mxGeometry>
        </mxCell>
        <mxCell id="T2V67VZh03IN2GNE7Tnd-1" value="&lt;p style=&quot;margin: 4px 0px 0px; text-align: center;&quot;&gt;&lt;b&gt;&lt;u&gt;ProductSku&lt;/u&gt;&lt;/b&gt;&lt;/p&gt;&lt;p style=&quot;margin: 4px 0px 0px; text-align: center;&quot;&gt;&lt;u style=&quot;&quot;&gt;&lt;b&gt;商品sku&lt;/b&gt;&lt;/u&gt;&lt;/p&gt;&lt;hr&gt;&lt;p style=&quot;margin: 0px; margin-left: 8px;&quot;&gt;code&amp;nbsp; &amp;nbsp; &amp;nbsp; &amp;nbsp; &amp;nbsp; &amp;nbsp; 编码&lt;/p&gt;&lt;p style=&quot;margin: 0px; margin-left: 8px;&quot;&gt;name&amp;nbsp; &amp;nbsp; &amp;nbsp; &amp;nbsp; &amp;nbsp; 名称&lt;/p&gt;" style="verticalAlign=top;align=left;overflow=fill;fontSize=12;fontFamily=Helvetica;html=1;strokeColor=#003366;shadow=1;fillColor=#D4E1F5;fontColor=#003366" parent="1" vertex="1">
          <mxGeometry x="20" y="570" width="160" height="80" as="geometry" />
        </mxCell>
        <mxCell id="T2V67VZh03IN2GNE7Tnd-2" value="" style="endArrow=open;endSize=12;startArrow=diamondThin;startSize=14;startFill=0;edgeStyle=orthogonalEdgeStyle;exitX=0;exitY=0.5;exitDx=0;exitDy=0;entryX=0.5;entryY=1;entryDx=0;entryDy=0;" parent="1" source="GjRLE1qKXkt9nsyT0Dci-132" target="T2V67VZh03IN2GNE7Tnd-1" edge="1">
          <mxGeometry x="39.3599999999999" y="-134.3399999999997" as="geometry">
            <mxPoint x="380" y="599.5" as="sourcePoint" />
            <mxPoint x="230" y="599.5" as="targetPoint" />
          </mxGeometry>
        </mxCell>
        <mxCell id="T2V67VZh03IN2GNE7Tnd-3" value="0..n" style="resizable=0;align=left;verticalAlign=top;labelBackgroundColor=#ffffff;fontSize=10;strokeColor=#003366;shadow=1;fillColor=#D4E1F5;fontColor=#003366" parent="T2V67VZh03IN2GNE7Tnd-2" connectable="0" vertex="1">
          <mxGeometry x="-1" relative="1" as="geometry">
            <mxPoint x="-40" as="offset" />
          </mxGeometry>
        </mxCell>
        <mxCell id="T2V67VZh03IN2GNE7Tnd-4" value="1" style="resizable=0;align=right;verticalAlign=top;labelBackgroundColor=#ffffff;fontSize=10;strokeColor=#003366;shadow=1;fillColor=#D4E1F5;fontColor=#003366" parent="T2V67VZh03IN2GNE7Tnd-2" connectable="0" vertex="1">
          <mxGeometry x="1" relative="1" as="geometry">
            <mxPoint x="20" as="offset" />
          </mxGeometry>
        </mxCell>
        <mxCell id="nIlfs-LqMGZNhN_kB8W_-1" value="&lt;p style=&quot;margin: 4px 0px 0px; text-align: center;&quot;&gt;&lt;b&gt;&lt;u&gt;ProductSpu&lt;/u&gt;&lt;/b&gt;&lt;/p&gt;&lt;p style=&quot;margin: 4px 0px 0px; text-align: center;&quot;&gt;&lt;u style=&quot;&quot;&gt;&lt;b&gt;商品spu&lt;/b&gt;&lt;/u&gt;&lt;/p&gt;&lt;hr&gt;&lt;p style=&quot;margin: 0px; margin-left: 8px;&quot;&gt;code&amp;nbsp; &amp;nbsp; &amp;nbsp; &amp;nbsp; &amp;nbsp; &amp;nbsp; 编码&lt;/p&gt;&lt;p style=&quot;margin: 0px; margin-left: 8px;&quot;&gt;name&amp;nbsp; &amp;nbsp; &amp;nbsp; &amp;nbsp; &amp;nbsp; 名称&lt;/p&gt;" style="verticalAlign=top;align=left;overflow=fill;fontSize=12;fontFamily=Helvetica;html=1;strokeColor=#003366;shadow=1;fillColor=#D4E1F5;fontColor=#003366" parent="1" vertex="1">
          <mxGeometry x="20" y="355" width="160" height="80" as="geometry" />
        </mxCell>
        <mxCell id="nIlfs-LqMGZNhN_kB8W_-2" value="" style="endArrow=open;endSize=12;startArrow=diamondThin;startSize=14;startFill=0;edgeStyle=orthogonalEdgeStyle;exitX=0.5;exitY=0;exitDx=0;exitDy=0;entryX=0.5;entryY=1;entryDx=0;entryDy=0;" parent="1" source="T2V67VZh03IN2GNE7Tnd-1" target="nIlfs-LqMGZNhN_kB8W_-1" edge="1">
          <mxGeometry x="49.3599999999999" y="-124.33999999999969" as="geometry">
            <mxPoint x="400" y="630" as="sourcePoint" />
            <mxPoint x="240" y="630" as="targetPoint" />
          </mxGeometry>
        </mxCell>
        <mxCell id="nIlfs-LqMGZNhN_kB8W_-3" value="0..n" style="resizable=0;align=left;verticalAlign=top;labelBackgroundColor=#ffffff;fontSize=10;strokeColor=#003366;shadow=1;fillColor=#D4E1F5;fontColor=#003366" parent="nIlfs-LqMGZNhN_kB8W_-2" connectable="0" vertex="1">
          <mxGeometry x="-1" relative="1" as="geometry">
            <mxPoint x="10" y="-30" as="offset" />
          </mxGeometry>
        </mxCell>
        <mxCell id="nIlfs-LqMGZNhN_kB8W_-4" value="1" style="resizable=0;align=right;verticalAlign=top;labelBackgroundColor=#ffffff;fontSize=10;strokeColor=#003366;shadow=1;fillColor=#D4E1F5;fontColor=#003366" parent="nIlfs-LqMGZNhN_kB8W_-2" connectable="0" vertex="1">
          <mxGeometry x="1" relative="1" as="geometry">
            <mxPoint x="20" as="offset" />
          </mxGeometry>
        </mxCell>
        <mxCell id="nIlfs-LqMGZNhN_kB8W_-6" value="" style="endArrow=open;endSize=12;startArrow=diamondThin;startSize=14;startFill=0;edgeStyle=orthogonalEdgeStyle;exitX=0;exitY=0.5;exitDx=0;exitDy=0;entryX=1;entryY=0.5;entryDx=0;entryDy=0;" parent="1" source="GjRLE1qKXkt9nsyT0Dci-122" target="nIlfs-LqMGZNhN_kB8W_-1" edge="1">
          <mxGeometry x="59.3599999999999" y="-114.33999999999969" as="geometry">
            <mxPoint x="110" y="580" as="sourcePoint" />
            <mxPoint x="110" y="470" as="targetPoint" />
          </mxGeometry>
        </mxCell>
        <mxCell id="nIlfs-LqMGZNhN_kB8W_-7" value="0..n" style="resizable=0;align=left;verticalAlign=top;labelBackgroundColor=#ffffff;fontSize=10;strokeColor=#003366;shadow=1;fillColor=#D4E1F5;fontColor=#003366" parent="nIlfs-LqMGZNhN_kB8W_-6" connectable="0" vertex="1">
          <mxGeometry x="-1" relative="1" as="geometry">
            <mxPoint x="-35" y="-30" as="offset" />
          </mxGeometry>
        </mxCell>
        <mxCell id="nIlfs-LqMGZNhN_kB8W_-8" value="1" style="resizable=0;align=right;verticalAlign=top;labelBackgroundColor=#ffffff;fontSize=10;strokeColor=#003366;shadow=1;fillColor=#D4E1F5;fontColor=#003366" parent="nIlfs-LqMGZNhN_kB8W_-6" connectable="0" vertex="1">
          <mxGeometry x="1" relative="1" as="geometry">
            <mxPoint x="20" as="offset" />
          </mxGeometry>
        </mxCell>
      </root>
    </mxGraphModel>
  </diagram>
  <diagram id="kmgReaKRsroSAFAUPFtD" name="用户">
    <mxGraphModel dx="1050" dy="617" grid="1" gridSize="10" guides="1" tooltips="1" connect="1" arrows="1" fold="1" page="1" pageScale="1" pageWidth="827" pageHeight="1169" math="0" shadow="0">
      <root>
        <mxCell id="0" />
        <mxCell id="1" parent="0" />
        <mxCell id="0EMZmsfiatGyzTkB9hy_-1" value="&lt;p style=&quot;margin: 4px 0px 0px; text-align: center;&quot;&gt;&lt;b&gt;&lt;u&gt;User&lt;/u&gt;&lt;/b&gt;&lt;/p&gt;&lt;p style=&quot;margin: 4px 0px 0px; text-align: center;&quot;&gt;&lt;b&gt;&lt;u&gt;用户&lt;/u&gt;&lt;/b&gt;&lt;/p&gt;&lt;hr&gt;&lt;p style=&quot;margin: 0px; margin-left: 8px;&quot;&gt;id&amp;nbsp; &amp;nbsp; &amp;nbsp; &amp;nbsp; &amp;nbsp; &amp;nbsp; &amp;nbsp; &amp;nbsp; &amp;nbsp;用户id&lt;/p&gt;&lt;p style=&quot;margin: 0px; margin-left: 8px;&quot;&gt;login&amp;nbsp; &amp;nbsp; &amp;nbsp; &amp;nbsp; &amp;nbsp; &amp;nbsp; 登录名&lt;br&gt;&lt;/p&gt;&lt;p style=&quot;margin: 0px; margin-left: 8px;&quot;&gt;nameCn&amp;nbsp; &amp;nbsp; &amp;nbsp; 中文名&lt;/p&gt;" style="verticalAlign=top;align=left;overflow=fill;fontSize=12;fontFamily=Helvetica;html=1;strokeColor=#003366;shadow=1;fillColor=#D4E1F5;fontColor=#003366" parent="1" vertex="1">
          <mxGeometry x="180" y="115" width="160" height="100" as="geometry" />
        </mxCell>
        <mxCell id="0EMZmsfiatGyzTkB9hy_-2" value="&lt;p style=&quot;margin: 4px 0px 0px; text-align: center;&quot;&gt;&lt;b&gt;&lt;u&gt;UserGroup&lt;/u&gt;&lt;/b&gt;&lt;/p&gt;&lt;p style=&quot;margin: 4px 0px 0px; text-align: center;&quot;&gt;&lt;b&gt;&lt;u&gt;用户组&lt;/u&gt;&lt;/b&gt;&lt;/p&gt;&lt;hr&gt;&lt;p style=&quot;margin: 0px; margin-left: 8px;&quot;&gt;groupCode&amp;nbsp; &amp;nbsp; &amp;nbsp; 编码&lt;/p&gt;&lt;p style=&quot;margin: 0px; margin-left: 8px;&quot;&gt;groupName&amp;nbsp; &amp;nbsp; &amp;nbsp;名称&lt;br&gt;&lt;/p&gt;&lt;p style=&quot;margin: 0px; margin-left: 8px;&quot;&gt;parent&amp;nbsp; &amp;nbsp; &amp;nbsp; &amp;nbsp; &amp;nbsp; &amp;nbsp; &amp;nbsp; 父用户组&lt;br&gt;&lt;/p&gt;" style="verticalAlign=top;align=left;overflow=fill;fontSize=12;fontFamily=Helvetica;html=1;strokeColor=#003366;shadow=1;fillColor=#D4E1F5;fontColor=#003366" parent="1" vertex="1">
          <mxGeometry x="540" y="117.5" width="160" height="95" as="geometry" />
        </mxCell>
        <mxCell id="isvnemzQAago53b3Zl2U-1" style="edgeStyle=orthogonalEdgeStyle;rounded=0;orthogonalLoop=1;jettySize=auto;html=1;entryX=0;entryY=0.5;entryDx=0;entryDy=0;startArrow=diamondThin;startFill=0;endArrow=diamondThin;endFill=0;jumpSize=6;targetPerimeterSpacing=0;sourcePerimeterSpacing=0;startSize=14;endSize=14;" parent="1" source="0EMZmsfiatGyzTkB9hy_-1" target="0EMZmsfiatGyzTkB9hy_-2" edge="1">
          <mxGeometry relative="1" as="geometry">
            <mxPoint x="550" y="305" as="sourcePoint" />
            <mxPoint x="550" y="205" as="targetPoint" />
          </mxGeometry>
        </mxCell>
        <mxCell id="isvnemzQAago53b3Zl2U-2" value="n" style="edgeLabel;html=1;align=center;verticalAlign=middle;resizable=0;points=[];" parent="isvnemzQAago53b3Zl2U-1" vertex="1" connectable="0">
          <mxGeometry x="0.7486" y="-2" relative="1" as="geometry">
            <mxPoint x="3" y="5" as="offset" />
          </mxGeometry>
        </mxCell>
        <mxCell id="isvnemzQAago53b3Zl2U-3" value="n" style="edgeLabel;html=1;align=center;verticalAlign=middle;resizable=0;points=[];" parent="isvnemzQAago53b3Zl2U-1" vertex="1" connectable="0">
          <mxGeometry x="-0.6657" y="-1" relative="1" as="geometry">
            <mxPoint x="-11" y="-10" as="offset" />
          </mxGeometry>
        </mxCell>
        <mxCell id="isvnemzQAago53b3Zl2U-4" value="user_group_user" style="edgeLabel;html=1;align=center;verticalAlign=middle;resizable=0;points=[];" parent="isvnemzQAago53b3Zl2U-1" vertex="1" connectable="0">
          <mxGeometry x="0.3343" y="-3" relative="1" as="geometry">
            <mxPoint x="-37" y="11" as="offset" />
          </mxGeometry>
        </mxCell>
        <mxCell id="isvnemzQAago53b3Zl2U-6" value="&lt;p style=&quot;margin: 4px 0px 0px; text-align: center;&quot;&gt;&lt;b&gt;&lt;u&gt;Role&lt;/u&gt;&lt;/b&gt;&lt;/p&gt;&lt;p style=&quot;margin: 4px 0px 0px; text-align: center;&quot;&gt;&lt;b&gt;&lt;u&gt;角色&lt;/u&gt;&lt;/b&gt;&lt;/p&gt;&lt;hr&gt;&lt;p style=&quot;margin: 0px; margin-left: 8px;&quot;&gt;roleCode&amp;nbsp; &amp;nbsp; &amp;nbsp; 编码&lt;/p&gt;&lt;p style=&quot;margin: 0px; margin-left: 8px;&quot;&gt;roleName&amp;nbsp; &amp;nbsp; &amp;nbsp;名称&lt;/p&gt;" style="verticalAlign=top;align=left;overflow=fill;fontSize=12;fontFamily=Helvetica;html=1;strokeColor=#003366;shadow=1;fillColor=#D4E1F5;fontColor=#003366" parent="1" vertex="1">
          <mxGeometry x="540" y="310" width="160" height="80" as="geometry" />
        </mxCell>
        <mxCell id="isvnemzQAago53b3Zl2U-7" style="edgeStyle=orthogonalEdgeStyle;rounded=0;orthogonalLoop=1;jettySize=auto;html=1;entryX=0.5;entryY=0;entryDx=0;entryDy=0;startArrow=diamondThin;startFill=0;endArrow=diamondThin;endFill=0;jumpSize=6;targetPerimeterSpacing=0;sourcePerimeterSpacing=0;startSize=14;endSize=14;" parent="1" target="isvnemzQAago53b3Zl2U-6" edge="1">
          <mxGeometry relative="1" as="geometry">
            <mxPoint x="620" y="210" as="sourcePoint" />
            <mxPoint x="550" y="175" as="targetPoint" />
          </mxGeometry>
        </mxCell>
        <mxCell id="isvnemzQAago53b3Zl2U-8" value="n" style="edgeLabel;html=1;align=center;verticalAlign=middle;resizable=0;points=[];" parent="isvnemzQAago53b3Zl2U-7" vertex="1" connectable="0">
          <mxGeometry x="0.7486" y="-2" relative="1" as="geometry">
            <mxPoint x="11" y="-7" as="offset" />
          </mxGeometry>
        </mxCell>
        <mxCell id="isvnemzQAago53b3Zl2U-9" value="n" style="edgeLabel;html=1;align=center;verticalAlign=middle;resizable=0;points=[];" parent="isvnemzQAago53b3Zl2U-7" vertex="1" connectable="0">
          <mxGeometry x="-0.6657" y="-1" relative="1" as="geometry">
            <mxPoint x="5" y="4" as="offset" />
          </mxGeometry>
        </mxCell>
        <mxCell id="isvnemzQAago53b3Zl2U-10" value="jhi_role_user_group" style="edgeLabel;html=1;align=center;verticalAlign=middle;resizable=0;points=[];" parent="isvnemzQAago53b3Zl2U-7" vertex="1" connectable="0">
          <mxGeometry x="0.3343" y="-3" relative="1" as="geometry">
            <mxPoint x="-1" y="-17" as="offset" />
          </mxGeometry>
        </mxCell>
        <mxCell id="isvnemzQAago53b3Zl2U-11" value="&lt;p style=&quot;margin: 4px 0px 0px; text-align: center;&quot;&gt;&lt;b&gt;&lt;u&gt;Permission&lt;/u&gt;&lt;/b&gt;&lt;br&gt;&lt;/p&gt;&lt;p style=&quot;margin: 4px 0px 0px; text-align: center;&quot;&gt;&lt;b&gt;&lt;u&gt;权限&lt;/u&gt;&lt;/b&gt;&lt;/p&gt;&lt;hr&gt;&lt;p style=&quot;margin: 0px; margin-left: 8px;&quot;&gt;&lt;span style=&quot;background-color: initial;&quot;&gt;name&amp;nbsp; &amp;nbsp; &amp;nbsp; &amp;nbsp; &amp;nbsp; &amp;nbsp; &amp;nbsp; &amp;nbsp; &amp;nbsp; &amp;nbsp;名称&lt;/span&gt;&lt;br&gt;&lt;/p&gt;&lt;p style=&quot;margin: 0px; margin-left: 8px;&quot;&gt;&lt;span style=&quot;background-color: initial;&quot;&gt;permissionCode&amp;nbsp; 编码&lt;br&gt;&lt;/span&gt;&lt;/p&gt;&lt;p style=&quot;margin: 0px; margin-left: 8px;&quot;&gt;&lt;span style=&quot;background-color: initial;&quot;&gt;parentId&amp;nbsp; &amp;nbsp; &amp;nbsp; &amp;nbsp; &amp;nbsp; &amp;nbsp; &amp;nbsp; &amp;nbsp;父级&lt;br&gt;&lt;/span&gt;&lt;/p&gt;" style="verticalAlign=top;align=left;overflow=fill;fontSize=12;fontFamily=Helvetica;html=1;strokeColor=#003366;shadow=1;fillColor=#D4E1F5;fontColor=#003366" parent="1" vertex="1">
          <mxGeometry x="180" y="300" width="160" height="100" as="geometry" />
        </mxCell>
        <mxCell id="isvnemzQAago53b3Zl2U-12" style="edgeStyle=orthogonalEdgeStyle;rounded=0;orthogonalLoop=1;jettySize=auto;html=1;entryX=0;entryY=0.5;entryDx=0;entryDy=0;startArrow=diamondThin;startFill=0;endArrow=diamondThin;endFill=0;jumpSize=6;targetPerimeterSpacing=0;sourcePerimeterSpacing=0;startSize=14;endSize=14;exitX=1;exitY=0.5;exitDx=0;exitDy=0;" parent="1" source="isvnemzQAago53b3Zl2U-11" target="isvnemzQAago53b3Zl2U-6" edge="1">
          <mxGeometry relative="1" as="geometry">
            <mxPoint x="350" y="175" as="sourcePoint" />
            <mxPoint x="550" y="175" as="targetPoint" />
          </mxGeometry>
        </mxCell>
        <mxCell id="isvnemzQAago53b3Zl2U-13" value="n" style="edgeLabel;html=1;align=center;verticalAlign=middle;resizable=0;points=[];" parent="isvnemzQAago53b3Zl2U-12" vertex="1" connectable="0">
          <mxGeometry x="0.7486" y="-2" relative="1" as="geometry">
            <mxPoint x="3" y="6" as="offset" />
          </mxGeometry>
        </mxCell>
        <mxCell id="isvnemzQAago53b3Zl2U-14" value="n" style="edgeLabel;html=1;align=center;verticalAlign=middle;resizable=0;points=[];" parent="isvnemzQAago53b3Zl2U-12" vertex="1" connectable="0">
          <mxGeometry x="-0.6657" y="-1" relative="1" as="geometry">
            <mxPoint x="-9" y="-11" as="offset" />
          </mxGeometry>
        </mxCell>
        <mxCell id="isvnemzQAago53b3Zl2U-15" value="jhi_role_permision" style="edgeLabel;html=1;align=center;verticalAlign=middle;resizable=0;points=[];" parent="isvnemzQAago53b3Zl2U-12" vertex="1" connectable="0">
          <mxGeometry x="0.3343" y="-3" relative="1" as="geometry">
            <mxPoint x="-37" y="11" as="offset" />
          </mxGeometry>
        </mxCell>
        <mxCell id="isvnemzQAago53b3Zl2U-16" value="&lt;p style=&quot;margin: 4px 0px 0px; text-align: center;&quot;&gt;&lt;b&gt;&lt;u&gt;DataPermission&lt;/u&gt;&lt;/b&gt;&lt;br&gt;&lt;/p&gt;&lt;p style=&quot;margin: 4px 0px 0px; text-align: center;&quot;&gt;&lt;b&gt;&lt;u&gt;数据权限&lt;/u&gt;&lt;/b&gt;&lt;/p&gt;&lt;hr&gt;&lt;p style=&quot;margin: 0px; margin-left: 8px;&quot;&gt;&lt;span style=&quot;background-color: initial;&quot;&gt;dataName&amp;nbsp; &amp;nbsp; &amp;nbsp; &amp;nbsp; &amp;nbsp; &amp;nbsp;名称&lt;/span&gt;&lt;br&gt;&lt;/p&gt;&amp;nbsp; dataCode&amp;nbsp; &amp;nbsp; &amp;nbsp; &amp;nbsp; &amp;nbsp; &amp;nbsp; &lt;span style=&quot;background-color: initial;&quot;&gt;编码&lt;br&gt;&lt;/span&gt;" style="verticalAlign=top;align=left;overflow=fill;fontSize=12;fontFamily=Helvetica;html=1;strokeColor=#003366;shadow=1;fillColor=#D4E1F5;fontColor=#003366" parent="1" vertex="1">
          <mxGeometry x="540" y="505" width="160" height="85" as="geometry" />
        </mxCell>
        <mxCell id="isvnemzQAago53b3Zl2U-17" style="edgeStyle=orthogonalEdgeStyle;rounded=0;orthogonalLoop=1;jettySize=auto;html=1;entryX=0.5;entryY=1;entryDx=0;entryDy=0;startArrow=diamondThin;startFill=0;endArrow=diamondThin;endFill=0;jumpSize=6;targetPerimeterSpacing=0;sourcePerimeterSpacing=0;startSize=14;endSize=14;exitX=0.5;exitY=0;exitDx=0;exitDy=0;" parent="1" source="isvnemzQAago53b3Zl2U-16" target="isvnemzQAago53b3Zl2U-6" edge="1">
          <mxGeometry relative="1" as="geometry">
            <mxPoint x="710" y="380" as="sourcePoint" />
            <mxPoint x="710" y="410" as="targetPoint" />
          </mxGeometry>
        </mxCell>
        <mxCell id="isvnemzQAago53b3Zl2U-18" value="n" style="edgeLabel;html=1;align=center;verticalAlign=middle;resizable=0;points=[];" parent="isvnemzQAago53b3Zl2U-17" vertex="1" connectable="0">
          <mxGeometry x="0.7486" y="-2" relative="1" as="geometry">
            <mxPoint x="3" y="4" as="offset" />
          </mxGeometry>
        </mxCell>
        <mxCell id="isvnemzQAago53b3Zl2U-19" value="n" style="edgeLabel;html=1;align=center;verticalAlign=middle;resizable=0;points=[];" parent="isvnemzQAago53b3Zl2U-17" vertex="1" connectable="0">
          <mxGeometry x="-0.6657" y="-1" relative="1" as="geometry">
            <mxPoint x="2" y="-8" as="offset" />
          </mxGeometry>
        </mxCell>
        <mxCell id="isvnemzQAago53b3Zl2U-20" value="jhi_role_data_permission" style="edgeLabel;html=1;align=center;verticalAlign=middle;resizable=0;points=[];" parent="isvnemzQAago53b3Zl2U-17" vertex="1" connectable="0">
          <mxGeometry x="0.3343" y="-3" relative="1" as="geometry">
            <mxPoint x="-3" y="11" as="offset" />
          </mxGeometry>
        </mxCell>
      </root>
    </mxGraphModel>
  </diagram>
  <diagram id="Iw2IoaxkOebiXJ4vny5G" name="选品">
    <mxGraphModel dx="1050" dy="1786" grid="1" gridSize="10" guides="1" tooltips="1" connect="1" arrows="1" fold="1" page="1" pageScale="1" pageWidth="827" pageHeight="1169" math="0" shadow="0">
      <root>
        <mxCell id="0" />
        <mxCell id="1" parent="0" />
        <mxCell id="uM8Gslu0TCIED0904_-n-1" value="&lt;p style=&quot;margin: 4px 0px 0px; text-align: center;&quot;&gt;&lt;b&gt;&lt;u&gt;ProductOfferSpu&lt;/u&gt;&lt;/b&gt;&lt;/p&gt;&lt;p style=&quot;margin: 4px 0px 0px; text-align: center;&quot;&gt;&lt;b&gt;&lt;u&gt;选品Spu&lt;/u&gt;&lt;/b&gt;&lt;/p&gt;&lt;hr&gt;&lt;p style=&quot;margin: 0px; margin-left: 8px;&quot;&gt;companyId&amp;nbsp; &amp;nbsp;公司名称&lt;/p&gt;&lt;p style=&quot;margin: 0px; margin-left: 8px;&quot;&gt;code&amp;nbsp; &amp;nbsp; &amp;nbsp; &amp;nbsp; &amp;nbsp; &amp;nbsp; 编码&lt;br&gt;&lt;/p&gt;&lt;p style=&quot;margin: 0px; margin-left: 8px;&quot;&gt;name&amp;nbsp; &amp;nbsp; &amp;nbsp; &amp;nbsp; &amp;nbsp; &amp;nbsp;名称&lt;/p&gt;" style="verticalAlign=top;align=left;overflow=fill;fontSize=12;fontFamily=Helvetica;html=1;strokeColor=#003366;shadow=1;fillColor=#D4E1F5;fontColor=#003366" parent="1" vertex="1">
          <mxGeometry x="440" y="60" width="160" height="100" as="geometry" />
        </mxCell>
        <mxCell id="uM8Gslu0TCIED0904_-n-2" value="&lt;p style=&quot;margin: 4px 0px 0px; text-align: center;&quot;&gt;&lt;b&gt;&lt;u&gt;ProductOfferSku&lt;/u&gt;&lt;/b&gt;&lt;/p&gt;&lt;p style=&quot;margin: 4px 0px 0px; text-align: center;&quot;&gt;&lt;b&gt;&lt;u&gt;选品Sku&lt;/u&gt;&lt;/b&gt;&lt;/p&gt;&lt;hr&gt;&lt;p style=&quot;margin: 0px; margin-left: 8px;&quot;&gt;&lt;span style=&quot;background-color: initial;&quot;&gt;code&amp;nbsp; &amp;nbsp; &amp;nbsp; &amp;nbsp; &amp;nbsp; &amp;nbsp; 编码&lt;/span&gt;&lt;br&gt;&lt;/p&gt;&lt;p style=&quot;margin: 0px; margin-left: 8px;&quot;&gt;offerSpu&amp;nbsp; &amp;nbsp; &amp;nbsp; 选品Offer spu&lt;br&gt;&lt;/p&gt;&lt;p style=&quot;margin: 0px; margin-left: 8px;&quot;&gt;&lt;br&gt;&lt;/p&gt;&lt;p style=&quot;margin: 0px; margin-left: 8px;&quot;&gt;&lt;br&gt;&lt;/p&gt;" style="verticalAlign=top;align=left;overflow=fill;fontSize=12;fontFamily=Helvetica;html=1;strokeColor=#003366;shadow=1;fillColor=#D4E1F5;fontColor=#003366" parent="1" vertex="1">
          <mxGeometry x="670" y="235" width="180" height="140" as="geometry" />
        </mxCell>
        <mxCell id="cuUKVli-UwbbVTlJG3BX-5" value="&lt;p style=&quot;margin: 4px 0px 0px; text-align: center;&quot;&gt;&lt;b&gt;&lt;u&gt;OfferSkuEntry&lt;/u&gt;&lt;/b&gt;&lt;/p&gt;&lt;p style=&quot;margin: 4px 0px 0px; text-align: center;&quot;&gt;商品组合明细&lt;/p&gt;&lt;hr&gt;&lt;p style=&quot;margin: 0px; margin-left: 8px;&quot;&gt;&lt;span style=&quot;background-color: initial;&quot;&gt;productSkuId&amp;nbsp; &amp;nbsp; &amp;nbsp; &amp;nbsp; &amp;nbsp; &amp;nbsp; 商品id&lt;/span&gt;&lt;br&gt;&lt;/p&gt;&lt;p style=&quot;margin: 0px; margin-left: 8px;&quot;&gt;quantity&amp;nbsp; &amp;nbsp; &amp;nbsp; &amp;nbsp; &amp;nbsp; &amp;nbsp; &amp;nbsp; &amp;nbsp;商品数量&lt;/p&gt;&lt;p style=&quot;margin: 0px; margin-left: 8px;&quot;&gt;skuCode&amp;nbsp; &amp;nbsp; &amp;nbsp; &amp;nbsp; &amp;nbsp; &amp;nbsp; &amp;nbsp;商品编码&lt;/p&gt;&lt;p style=&quot;margin: 0px; margin-left: 8px;&quot;&gt;skuName&amp;nbsp; &amp;nbsp; &amp;nbsp; &amp;nbsp; &amp;nbsp; &amp;nbsp; 商品名称&lt;/p&gt;&lt;p style=&quot;margin: 0px; margin-left: 8px;&quot;&gt;offerSkuId&amp;nbsp; &amp;nbsp; &amp;nbsp; &amp;nbsp; &amp;nbsp; &amp;nbsp;offer skuid&lt;/p&gt;" style="verticalAlign=top;align=left;overflow=fill;fontSize=12;fontFamily=Helvetica;html=1;strokeColor=#003366;shadow=1;fillColor=#D4E1F5;fontColor=#003366" parent="1" vertex="1">
          <mxGeometry x="670" y="530" width="180" height="130" as="geometry" />
        </mxCell>
        <mxCell id="cuUKVli-UwbbVTlJG3BX-6" value="" style="endArrow=open;endSize=12;startArrow=diamondThin;startSize=14;startFill=0;edgeStyle=orthogonalEdgeStyle;exitX=0.5;exitY=0;exitDx=0;exitDy=0;entryX=0.5;entryY=1;entryDx=0;entryDy=0;" parent="1" source="cuUKVli-UwbbVTlJG3BX-5" target="uM8Gslu0TCIED0904_-n-2" edge="1">
          <mxGeometry x="169.3599999999999" y="-34.33999999999969" as="geometry">
            <mxPoint x="610" y="390" as="sourcePoint" />
            <mxPoint x="760" y="380" as="targetPoint" />
          </mxGeometry>
        </mxCell>
        <mxCell id="cuUKVli-UwbbVTlJG3BX-7" value="0..n" style="resizable=0;align=left;verticalAlign=top;labelBackgroundColor=#ffffff;fontSize=10;strokeColor=#003366;shadow=1;fillColor=#D4E1F5;fontColor=#003366" parent="cuUKVli-UwbbVTlJG3BX-6" connectable="0" vertex="1">
          <mxGeometry x="-1" relative="1" as="geometry">
            <mxPoint x="-30" y="-30" as="offset" />
          </mxGeometry>
        </mxCell>
        <mxCell id="cuUKVli-UwbbVTlJG3BX-8" value="1" style="resizable=0;align=right;verticalAlign=top;labelBackgroundColor=#ffffff;fontSize=10;strokeColor=#003366;shadow=1;fillColor=#D4E1F5;fontColor=#003366" parent="cuUKVli-UwbbVTlJG3BX-6" connectable="0" vertex="1">
          <mxGeometry x="1" relative="1" as="geometry">
            <mxPoint x="17" as="offset" />
          </mxGeometry>
        </mxCell>
        <mxCell id="cuUKVli-UwbbVTlJG3BX-9" value="&lt;p style=&quot;margin: 4px 0px 0px; text-align: center;&quot;&gt;&lt;b&gt;&lt;u&gt;ProductSku&lt;/u&gt;&lt;/b&gt;&lt;/p&gt;&lt;p style=&quot;margin: 4px 0px 0px; text-align: center;&quot;&gt;商品sku&lt;/p&gt;&lt;hr&gt;&lt;p style=&quot;margin: 0px; margin-left: 8px;&quot;&gt;&lt;span style=&quot;background-color: initial;&quot;&gt;name&amp;nbsp; &amp;nbsp; &amp;nbsp; &amp;nbsp; &amp;nbsp; &amp;nbsp; 名称&lt;/span&gt;&lt;br&gt;&lt;/p&gt;&lt;p style=&quot;margin: 0px; margin-left: 8px;&quot;&gt;&lt;br&gt;&lt;/p&gt;" style="verticalAlign=top;align=left;overflow=fill;fontSize=12;fontFamily=Helvetica;html=1;strokeColor=#003366;shadow=1;fillColor=#D4E1F5;fontColor=#003366" parent="1" vertex="1">
          <mxGeometry x="230" y="560" width="160" height="70" as="geometry" />
        </mxCell>
        <mxCell id="iJFXVLA7aNA4dNakx_lX-1" value="Use" style="endArrow=open;endSize=12;dashed=1;exitX=0;exitY=0.5;exitDx=0;exitDy=0;entryX=1;entryY=0.5;entryDx=0;entryDy=0;" parent="1" source="cuUKVli-UwbbVTlJG3BX-5" target="cuUKVli-UwbbVTlJG3BX-9" edge="1">
          <mxGeometry x="278.92" y="83.3599999999999" as="geometry">
            <mxPoint x="470" y="155" as="sourcePoint" />
            <mxPoint x="620" y="600" as="targetPoint" />
          </mxGeometry>
        </mxCell>
        <mxCell id="iJFXVLA7aNA4dNakx_lX-3" value="Use" style="endArrow=open;endSize=12;dashed=1;exitX=0.5;exitY=1;exitDx=0;exitDy=0;entryX=0.5;entryY=0;entryDx=0;entryDy=0;" parent="1" source="uM8Gslu0TCIED0904_-n-2" target="cuUKVli-UwbbVTlJG3BX-9" edge="1">
          <mxGeometry x="298.92" y="103.3599999999999" as="geometry">
            <mxPoint x="750" y="385" as="sourcePoint" />
            <mxPoint x="590" y="380" as="targetPoint" />
          </mxGeometry>
        </mxCell>
        <mxCell id="iJFXVLA7aNA4dNakx_lX-4" value="&lt;p style=&quot;margin: 4px 0px 0px; text-align: center;&quot;&gt;&lt;b&gt;&lt;u&gt;ProductOfferGift&lt;/u&gt;&lt;/b&gt;&lt;br&gt;&lt;/p&gt;&lt;p style=&quot;margin: 4px 0px 0px; text-align: center;&quot;&gt;&lt;b&gt;&lt;u&gt;选品赠品&lt;/u&gt;&lt;/b&gt;&lt;/p&gt;&lt;hr&gt;&lt;p style=&quot;margin: 0px; margin-left: 8px;&quot;&gt;&lt;span style=&quot;background-color: initial;&quot;&gt;name&amp;nbsp; &amp;nbsp; &amp;nbsp; &amp;nbsp; &amp;nbsp; &amp;nbsp;名称&lt;/span&gt;&lt;br&gt;&lt;/p&gt;&lt;p style=&quot;margin: 0px; margin-left: 8px;&quot;&gt;&lt;span style=&quot;background-color: initial;&quot;&gt;quantity&amp;nbsp; &amp;nbsp; &amp;nbsp; &amp;nbsp;数量&lt;/span&gt;&lt;/p&gt;&lt;p style=&quot;margin: 0px; margin-left: 8px;&quot;&gt;&lt;span style=&quot;background-color: initial;&quot;&gt;value&amp;nbsp; &amp;nbsp; &amp;nbsp; &amp;nbsp; &amp;nbsp; &amp;nbsp;价值&lt;/span&gt;&lt;/p&gt;&lt;p style=&quot;margin: 0px; margin-left: 8px;&quot;&gt;&lt;span style=&quot;background-color: initial;&quot;&gt;link&amp;nbsp; &amp;nbsp; &amp;nbsp; &amp;nbsp; &amp;nbsp; &amp;nbsp; &amp;nbsp; 链接&lt;br&gt;&lt;/span&gt;&lt;/p&gt;&lt;p style=&quot;margin: 0px; margin-left: 8px;&quot;&gt;&lt;span style=&quot;background-color: initial;&quot;&gt;description&amp;nbsp; 详情&lt;br&gt;&lt;/span&gt;&lt;/p&gt;&lt;p style=&quot;margin: 0px; margin-left: 8px;&quot;&gt;&lt;span style=&quot;background-color: initial;&quot;&gt;productSkuId 商品id&lt;/span&gt;&lt;/p&gt;" style="verticalAlign=top;align=left;overflow=fill;fontSize=12;fontFamily=Helvetica;html=1;strokeColor=#003366;shadow=1;fillColor=#D4E1F5;fontColor=#003366" parent="1" vertex="1">
          <mxGeometry x="110" y="230" width="160" height="150" as="geometry" />
        </mxCell>
        <mxCell id="iJFXVLA7aNA4dNakx_lX-8" value="Use" style="endArrow=open;endSize=12;dashed=1;entryX=0;entryY=0.5;entryDx=0;entryDy=0;exitX=0.438;exitY=1;exitDx=0;exitDy=0;exitPerimeter=0;" parent="1" source="iJFXVLA7aNA4dNakx_lX-4" target="cuUKVli-UwbbVTlJG3BX-9" edge="1">
          <mxGeometry x="288.92" y="93.3599999999999" as="geometry">
            <mxPoint x="230" y="610" as="sourcePoint" />
            <mxPoint x="750" y="575" as="targetPoint" />
          </mxGeometry>
        </mxCell>
        <mxCell id="fE9VbPSc4kp5gS-eWvaV-5" value="&lt;p style=&quot;margin: 4px 0px 0px; text-align: center;&quot;&gt;&lt;b&gt;&lt;u&gt;ShowPrice&lt;/u&gt;&lt;/b&gt;&lt;br&gt;&lt;/p&gt;&lt;p style=&quot;margin: 4px 0px 0px; text-align: center;&quot;&gt;&lt;b&gt;&lt;u&gt;直播间到手价&lt;/u&gt;&lt;/b&gt;&lt;/p&gt;&lt;hr&gt;&lt;p style=&quot;margin: 0px; margin-left: 8px;&quot;&gt;&lt;br&gt;&lt;/p&gt;" style="verticalAlign=top;align=left;overflow=fill;fontSize=12;fontFamily=Helvetica;html=1;strokeColor=#003366;shadow=1;fillColor=#D4E1F5;fontColor=#003366" vertex="1" parent="1">
          <mxGeometry x="620" y="-110" width="160" height="70" as="geometry" />
        </mxCell>
        <mxCell id="fE9VbPSc4kp5gS-eWvaV-9" value="&lt;p style=&quot;margin: 4px 0px 0px; text-align: center;&quot;&gt;&lt;b&gt;&lt;u&gt;Coupon&lt;/u&gt;&lt;/b&gt;&lt;br&gt;&lt;/p&gt;&lt;p style=&quot;margin: 4px 0px 0px; text-align: center;&quot;&gt;&lt;b&gt;&lt;u&gt;商品优惠券&lt;/u&gt;&lt;/b&gt;&lt;br&gt;&lt;/p&gt;&lt;hr&gt;&lt;p style=&quot;margin: 0px; margin-left: 8px;&quot;&gt;&lt;br&gt;&lt;/p&gt;" style="verticalAlign=top;align=left;overflow=fill;fontSize=12;fontFamily=Helvetica;html=1;strokeColor=#003366;shadow=1;fillColor=#D4E1F5;fontColor=#003366" vertex="1" parent="1">
          <mxGeometry x="100" y="-110" width="160" height="70" as="geometry" />
        </mxCell>
        <mxCell id="fE9VbPSc4kp5gS-eWvaV-13" value="&lt;p style=&quot;margin: 4px 0px 0px; text-align: center;&quot;&gt;&lt;b&gt;&lt;u&gt;Feature&lt;/u&gt;&lt;/b&gt;&lt;br&gt;&lt;/p&gt;&lt;p style=&quot;margin: 4px 0px 0px; text-align: center;&quot;&gt;&lt;b&gt;&lt;u&gt;商品卖点&lt;/u&gt;&lt;/b&gt;&lt;br&gt;&lt;/p&gt;&lt;hr&gt;&lt;p style=&quot;margin: 0px; margin-left: 8px;&quot;&gt;&lt;br&gt;&lt;/p&gt;" style="verticalAlign=top;align=left;overflow=fill;fontSize=12;fontFamily=Helvetica;html=1;strokeColor=#003366;shadow=1;fillColor=#D4E1F5;fontColor=#003366" vertex="1" parent="1">
          <mxGeometry x="360" y="-110" width="160" height="70" as="geometry" />
        </mxCell>
        <mxCell id="NT1We_9h5WOlSeQwqxxz-3" value="&lt;p style=&quot;margin: 4px 0px 0px; text-align: center;&quot;&gt;&lt;b&gt;&lt;u&gt;AttrAssign&lt;/u&gt;&lt;/b&gt;&lt;br&gt;&lt;/p&gt;&lt;p style=&quot;margin: 4px 0px 0px; text-align: center;&quot;&gt;&lt;b&gt;&lt;u&gt;商品属性分配&lt;/u&gt;&lt;/b&gt;&lt;br&gt;&lt;/p&gt;&lt;hr&gt;&lt;p style=&quot;margin: 0px; margin-left: 8px;&quot;&gt;&lt;br&gt;&lt;/p&gt;" style="verticalAlign=top;align=left;overflow=fill;fontSize=12;fontFamily=Helvetica;html=1;strokeColor=#003366;shadow=1;fillColor=#D4E1F5;fontColor=#003366" vertex="1" parent="1">
          <mxGeometry x="860" y="-110" width="160" height="70" as="geometry" />
        </mxCell>
        <mxCell id="NT1We_9h5WOlSeQwqxxz-32" value="" style="endArrow=open;endSize=12;startArrow=diamondThin;startSize=14;startFill=0;edgeStyle=orthogonalEdgeStyle;exitX=1;exitY=0.5;exitDx=0;exitDy=0;entryX=0;entryY=0.5;entryDx=0;entryDy=0;" edge="1" parent="1" target="NT1We_9h5WOlSeQwqxxz-27">
          <mxGeometry x="339.3599999999999" y="345.6600000000003" as="geometry">
            <mxPoint x="1160" y="335" as="sourcePoint" />
            <mxPoint x="1260" y="520" as="targetPoint" />
          </mxGeometry>
        </mxCell>
        <mxCell id="NT1We_9h5WOlSeQwqxxz-33" value="0..n" style="resizable=0;align=left;verticalAlign=top;labelBackgroundColor=#ffffff;fontSize=10;strokeColor=#003366;shadow=1;fillColor=#D4E1F5;fontColor=#003366" connectable="0" vertex="1" parent="NT1We_9h5WOlSeQwqxxz-32">
          <mxGeometry x="-1" relative="1" as="geometry">
            <mxPoint x="10" y="5" as="offset" />
          </mxGeometry>
        </mxCell>
        <mxCell id="NT1We_9h5WOlSeQwqxxz-34" value="1" style="resizable=0;align=right;verticalAlign=top;labelBackgroundColor=#ffffff;fontSize=10;strokeColor=#003366;shadow=1;fillColor=#D4E1F5;fontColor=#003366" connectable="0" vertex="1" parent="NT1We_9h5WOlSeQwqxxz-32">
          <mxGeometry x="1" relative="1" as="geometry">
            <mxPoint x="-7" y="-29" as="offset" />
          </mxGeometry>
        </mxCell>
        <mxCell id="NT1We_9h5WOlSeQwqxxz-36" value="&lt;p style=&quot;margin: 4px 0px 0px; text-align: center;&quot;&gt;&lt;b&gt;&lt;u&gt;ProductOfferSpu&lt;/u&gt;&lt;/b&gt;&lt;/p&gt;&lt;p style=&quot;margin: 4px 0px 0px; text-align: center;&quot;&gt;&lt;b&gt;&lt;u&gt;选品Spu&lt;/u&gt;&lt;/b&gt;&lt;/p&gt;&lt;hr&gt;&lt;p style=&quot;margin: 0px; margin-left: 8px;&quot;&gt;&lt;br&gt;&lt;/p&gt;" style="verticalAlign=top;align=left;overflow=fill;fontSize=12;fontFamily=Helvetica;html=1;strokeColor=#003366;shadow=1;fillColor=#D4E1F5;fontColor=#003366" vertex="1" parent="1">
          <mxGeometry x="390" y="920" width="160" height="80" as="geometry" />
        </mxCell>
        <mxCell id="NT1We_9h5WOlSeQwqxxz-37" value="&lt;p style=&quot;margin: 4px 0px 0px; text-align: center;&quot;&gt;&lt;b&gt;&lt;u&gt;SelectionSchedule&lt;/u&gt;&lt;/b&gt;&lt;br&gt;&lt;/p&gt;&lt;p style=&quot;margin: 4px 0px 0px; text-align: center;&quot;&gt;&lt;b&gt;&lt;u&gt;选品排期&lt;/u&gt;&lt;/b&gt;&lt;br&gt;&lt;/p&gt;&lt;hr&gt;&lt;p style=&quot;margin: 0px; margin-left: 8px;&quot;&gt;productOffer&amp;nbsp; Offer Spu&lt;br&gt;&lt;/p&gt;" style="verticalAlign=top;align=left;overflow=fill;fontSize=12;fontFamily=Helvetica;html=1;strokeColor=#003366;shadow=1;fillColor=#D4E1F5;fontColor=#003366" vertex="1" parent="1">
          <mxGeometry x="150" y="1035" width="180" height="70" as="geometry" />
        </mxCell>
        <mxCell id="NT1We_9h5WOlSeQwqxxz-38" value="&lt;p style=&quot;margin: 4px 0px 0px; text-align: center;&quot;&gt;&lt;b&gt;&lt;u&gt;SelectionCalendar&lt;/u&gt;&lt;/b&gt;&lt;br&gt;&lt;/p&gt;&lt;p style=&quot;margin: 4px 0px 0px; text-align: center;&quot;&gt;&lt;b&gt;&lt;u&gt;选品日历&lt;/u&gt;&lt;/b&gt;&lt;br&gt;&lt;/p&gt;&lt;hr&gt;&lt;p style=&quot;margin: 0px; margin-left: 8px;&quot;&gt;&lt;br&gt;&lt;/p&gt;" style="verticalAlign=top;align=left;overflow=fill;fontSize=12;fontFamily=Helvetica;html=1;strokeColor=#003366;shadow=1;fillColor=#D4E1F5;fontColor=#003366" vertex="1" parent="1">
          <mxGeometry x="704.5" y="1040" width="180" height="60" as="geometry" />
        </mxCell>
        <mxCell id="NT1We_9h5WOlSeQwqxxz-39" value="&lt;p style=&quot;margin: 4px 0px 0px; text-align: center;&quot;&gt;&lt;b&gt;&lt;u&gt;ShowScheduleOffer&lt;/u&gt;&lt;/b&gt;&lt;br&gt;&lt;/p&gt;&lt;p style=&quot;margin: 4px 0px 0px; text-align: center;&quot;&gt;&lt;b&gt;&lt;u&gt;直播排期商品offer表&lt;/u&gt;&lt;/b&gt;&lt;br&gt;&lt;/p&gt;&lt;hr&gt;&lt;p style=&quot;margin: 0px; margin-left: 8px;&quot;&gt;offerSpu&amp;nbsp;&amp;nbsp;选品Spu&lt;br&gt;&lt;/p&gt;&lt;p style=&quot;margin: 0px; margin-left: 8px;&quot;&gt;showDate&amp;nbsp; 直播日期&lt;br&gt;&lt;/p&gt;&lt;p style=&quot;margin: 0px; margin-left: 8px;&quot;&gt;showScene&amp;nbsp; 直播场次&lt;br&gt;&lt;/p&gt;&lt;p style=&quot;margin: 0px; margin-left: 8px;&quot;&gt;scheduleType&amp;nbsp;&amp;nbsp;排期类型：预排期、整体排期&lt;br&gt;&lt;/p&gt;" style="verticalAlign=top;align=left;overflow=fill;fontSize=12;fontFamily=Helvetica;html=1;strokeColor=#003366;shadow=1;fillColor=#D4E1F5;fontColor=#003366" vertex="1" parent="1">
          <mxGeometry x="635.5" y="762.5" width="249" height="120" as="geometry" />
        </mxCell>
        <mxCell id="NT1We_9h5WOlSeQwqxxz-40" value="&lt;p style=&quot;margin: 4px 0px 0px; text-align: center;&quot;&gt;&lt;b&gt;&lt;u&gt;ShowSchedule&lt;/u&gt;&lt;/b&gt;&lt;br&gt;&lt;/p&gt;&lt;p style=&quot;margin: 4px 0px 0px; text-align: center;&quot;&gt;&lt;b&gt;&lt;u&gt;直播日历&lt;/u&gt;&lt;/b&gt;&lt;br&gt;&lt;/p&gt;&lt;hr&gt;&lt;p style=&quot;margin: 0px; margin-left: 8px;&quot;&gt;&lt;br&gt;&lt;/p&gt;" style="verticalAlign=top;align=left;overflow=fill;fontSize=12;fontFamily=Helvetica;html=1;strokeColor=#003366;shadow=1;fillColor=#D4E1F5;fontColor=#003366" vertex="1" parent="1">
          <mxGeometry x="130" y="790" width="249" height="65" as="geometry" />
        </mxCell>
        <mxCell id="NT1We_9h5WOlSeQwqxxz-42" value="" style="endArrow=open;endSize=12;startArrow=diamondThin;startSize=14;startFill=0;exitX=0.5;exitY=1;exitDx=0;exitDy=0;entryX=0;entryY=0.5;entryDx=0;entryDy=0;" edge="1" parent="1" source="fE9VbPSc4kp5gS-eWvaV-9" target="uM8Gslu0TCIED0904_-n-1">
          <mxGeometry x="-370.6400000000001" y="105.66000000000031" as="geometry">
            <mxPoint x="550" y="130" as="sourcePoint" />
            <mxPoint x="550" y="280" as="targetPoint" />
          </mxGeometry>
        </mxCell>
        <mxCell id="NT1We_9h5WOlSeQwqxxz-43" value="0..n" style="resizable=0;align=left;verticalAlign=top;labelBackgroundColor=#ffffff;fontSize=10;strokeColor=#003366;shadow=1;fillColor=#D4E1F5;fontColor=#003366" connectable="0" vertex="1" parent="NT1We_9h5WOlSeQwqxxz-42">
          <mxGeometry x="-1" relative="1" as="geometry">
            <mxPoint x="-30" y="-3" as="offset" />
          </mxGeometry>
        </mxCell>
        <mxCell id="NT1We_9h5WOlSeQwqxxz-44" value="1" style="resizable=0;align=right;verticalAlign=top;labelBackgroundColor=#ffffff;fontSize=10;strokeColor=#003366;shadow=1;fillColor=#D4E1F5;fontColor=#003366" connectable="0" vertex="1" parent="NT1We_9h5WOlSeQwqxxz-42">
          <mxGeometry x="1" relative="1" as="geometry">
            <mxPoint x="-4" y="-31" as="offset" />
          </mxGeometry>
        </mxCell>
        <mxCell id="NT1We_9h5WOlSeQwqxxz-45" value="" style="endArrow=open;endSize=12;startArrow=diamondThin;startSize=14;startFill=0;exitX=0.5;exitY=1;exitDx=0;exitDy=0;entryX=0.25;entryY=0;entryDx=0;entryDy=0;" edge="1" parent="1" source="fE9VbPSc4kp5gS-eWvaV-13" target="uM8Gslu0TCIED0904_-n-1">
          <mxGeometry x="-370.6400000000001" y="105.66000000000031" as="geometry">
            <mxPoint x="550" y="130" as="sourcePoint" />
            <mxPoint x="550" y="280" as="targetPoint" />
          </mxGeometry>
        </mxCell>
        <mxCell id="NT1We_9h5WOlSeQwqxxz-46" value="0..n" style="resizable=0;align=left;verticalAlign=top;labelBackgroundColor=#ffffff;fontSize=10;strokeColor=#003366;shadow=1;fillColor=#D4E1F5;fontColor=#003366" connectable="0" vertex="1" parent="NT1We_9h5WOlSeQwqxxz-45">
          <mxGeometry x="-1" relative="1" as="geometry">
            <mxPoint x="-30" y="-3" as="offset" />
          </mxGeometry>
        </mxCell>
        <mxCell id="NT1We_9h5WOlSeQwqxxz-47" value="1" style="resizable=0;align=right;verticalAlign=top;labelBackgroundColor=#ffffff;fontSize=10;strokeColor=#003366;shadow=1;fillColor=#D4E1F5;fontColor=#003366" connectable="0" vertex="1" parent="NT1We_9h5WOlSeQwqxxz-45">
          <mxGeometry x="1" relative="1" as="geometry">
            <mxPoint x="-4" y="-31" as="offset" />
          </mxGeometry>
        </mxCell>
        <mxCell id="NT1We_9h5WOlSeQwqxxz-48" value="" style="endArrow=open;endSize=12;startArrow=diamondThin;startSize=14;startFill=0;exitX=0.5;exitY=1;exitDx=0;exitDy=0;entryX=0.75;entryY=0;entryDx=0;entryDy=0;" edge="1" parent="1" source="fE9VbPSc4kp5gS-eWvaV-5" target="uM8Gslu0TCIED0904_-n-1">
          <mxGeometry x="-370.6400000000001" y="105.66000000000031" as="geometry">
            <mxPoint x="550" y="130" as="sourcePoint" />
            <mxPoint x="550" y="280" as="targetPoint" />
          </mxGeometry>
        </mxCell>
        <mxCell id="NT1We_9h5WOlSeQwqxxz-49" value="0..n" style="resizable=0;align=left;verticalAlign=top;labelBackgroundColor=#ffffff;fontSize=10;strokeColor=#003366;shadow=1;fillColor=#D4E1F5;fontColor=#003366" connectable="0" vertex="1" parent="NT1We_9h5WOlSeQwqxxz-48">
          <mxGeometry x="-1" relative="1" as="geometry">
            <mxPoint x="-30" y="-3" as="offset" />
          </mxGeometry>
        </mxCell>
        <mxCell id="NT1We_9h5WOlSeQwqxxz-50" value="1" style="resizable=0;align=right;verticalAlign=top;labelBackgroundColor=#ffffff;fontSize=10;strokeColor=#003366;shadow=1;fillColor=#D4E1F5;fontColor=#003366" connectable="0" vertex="1" parent="NT1We_9h5WOlSeQwqxxz-48">
          <mxGeometry x="1" relative="1" as="geometry">
            <mxPoint x="-4" y="-31" as="offset" />
          </mxGeometry>
        </mxCell>
        <mxCell id="NT1We_9h5WOlSeQwqxxz-51" value="" style="endArrow=open;endSize=12;startArrow=diamondThin;startSize=14;startFill=0;exitX=0.5;exitY=1;exitDx=0;exitDy=0;entryX=1;entryY=0.5;entryDx=0;entryDy=0;" edge="1" parent="1" source="NT1We_9h5WOlSeQwqxxz-3" target="uM8Gslu0TCIED0904_-n-1">
          <mxGeometry x="-370.6400000000001" y="105.66000000000031" as="geometry">
            <mxPoint x="550" y="130" as="sourcePoint" />
            <mxPoint x="550" y="280" as="targetPoint" />
          </mxGeometry>
        </mxCell>
        <mxCell id="NT1We_9h5WOlSeQwqxxz-52" value="0..n" style="resizable=0;align=left;verticalAlign=top;labelBackgroundColor=#ffffff;fontSize=10;strokeColor=#003366;shadow=1;fillColor=#D4E1F5;fontColor=#003366" connectable="0" vertex="1" parent="NT1We_9h5WOlSeQwqxxz-51">
          <mxGeometry x="-1" relative="1" as="geometry">
            <mxPoint x="-30" y="-3" as="offset" />
          </mxGeometry>
        </mxCell>
        <mxCell id="NT1We_9h5WOlSeQwqxxz-53" value="1" style="resizable=0;align=right;verticalAlign=top;labelBackgroundColor=#ffffff;fontSize=10;strokeColor=#003366;shadow=1;fillColor=#D4E1F5;fontColor=#003366" connectable="0" vertex="1" parent="NT1We_9h5WOlSeQwqxxz-51">
          <mxGeometry x="1" relative="1" as="geometry">
            <mxPoint x="28" y="-31" as="offset" />
          </mxGeometry>
        </mxCell>
        <mxCell id="NT1We_9h5WOlSeQwqxxz-55" value="Use" style="endArrow=open;endSize=12;dashed=1;html=1;rounded=0;exitX=1;exitY=0.5;exitDx=0;exitDy=0;entryX=0.25;entryY=1;entryDx=0;entryDy=0;" edge="1" parent="1" source="NT1We_9h5WOlSeQwqxxz-37" target="NT1We_9h5WOlSeQwqxxz-36">
          <mxGeometry width="160" relative="1" as="geometry">
            <mxPoint x="460" y="1010" as="sourcePoint" />
            <mxPoint x="620" y="1010" as="targetPoint" />
          </mxGeometry>
        </mxCell>
        <mxCell id="NT1We_9h5WOlSeQwqxxz-56" value="Use" style="endArrow=open;endSize=12;dashed=1;html=1;rounded=0;entryX=1;entryY=0.5;entryDx=0;entryDy=0;exitX=0.25;exitY=1;exitDx=0;exitDy=0;" edge="1" parent="1" source="NT1We_9h5WOlSeQwqxxz-39" target="NT1We_9h5WOlSeQwqxxz-36">
          <mxGeometry width="160" relative="1" as="geometry">
            <mxPoint x="460" y="1010" as="sourcePoint" />
            <mxPoint x="620" y="1010" as="targetPoint" />
          </mxGeometry>
        </mxCell>
        <mxCell id="NT1We_9h5WOlSeQwqxxz-57" value="" style="endArrow=open;endSize=12;startArrow=diamondThin;startSize=14;startFill=0;edgeStyle=orthogonalEdgeStyle;entryX=1;entryY=0.5;entryDx=0;entryDy=0;" edge="1" parent="1" source="NT1We_9h5WOlSeQwqxxz-39" target="NT1We_9h5WOlSeQwqxxz-40">
          <mxGeometry x="-380.6400000000001" y="905.6600000000003" as="geometry">
            <mxPoint x="540" y="930" as="sourcePoint" />
            <mxPoint x="540" y="1080" as="targetPoint" />
          </mxGeometry>
        </mxCell>
        <mxCell id="NT1We_9h5WOlSeQwqxxz-58" value="0..n" style="resizable=0;align=left;verticalAlign=top;labelBackgroundColor=#ffffff;fontSize=10;strokeColor=#003366;shadow=1;fillColor=#D4E1F5;fontColor=#003366" connectable="0" vertex="1" parent="NT1We_9h5WOlSeQwqxxz-57">
          <mxGeometry x="-1" relative="1" as="geometry">
            <mxPoint x="-30" y="-3" as="offset" />
          </mxGeometry>
        </mxCell>
        <mxCell id="NT1We_9h5WOlSeQwqxxz-59" value="1" style="resizable=0;align=right;verticalAlign=top;labelBackgroundColor=#ffffff;fontSize=10;strokeColor=#003366;shadow=1;fillColor=#D4E1F5;fontColor=#003366" connectable="0" vertex="1" parent="NT1We_9h5WOlSeQwqxxz-57">
          <mxGeometry x="1" relative="1" as="geometry">
            <mxPoint x="22" y="-22" as="offset" />
          </mxGeometry>
        </mxCell>
        <mxCell id="NT1We_9h5WOlSeQwqxxz-60" value="" style="endArrow=open;endSize=12;startArrow=diamondThin;startSize=14;startFill=0;edgeStyle=orthogonalEdgeStyle;exitX=1;exitY=0.5;exitDx=0;exitDy=0;entryX=0;entryY=0.5;entryDx=0;entryDy=0;" edge="1" parent="1" source="NT1We_9h5WOlSeQwqxxz-37" target="NT1We_9h5WOlSeQwqxxz-38">
          <mxGeometry x="-340.6400000000001" y="1025.6600000000003" as="geometry">
            <mxPoint x="580" y="1050" as="sourcePoint" />
            <mxPoint x="580" y="1200" as="targetPoint" />
          </mxGeometry>
        </mxCell>
        <mxCell id="NT1We_9h5WOlSeQwqxxz-61" value="0..n" style="resizable=0;align=left;verticalAlign=top;labelBackgroundColor=#ffffff;fontSize=10;strokeColor=#003366;shadow=1;fillColor=#D4E1F5;fontColor=#003366" connectable="0" vertex="1" parent="NT1We_9h5WOlSeQwqxxz-60">
          <mxGeometry x="-1" relative="1" as="geometry">
            <mxPoint x="10" y="-3" as="offset" />
          </mxGeometry>
        </mxCell>
        <mxCell id="NT1We_9h5WOlSeQwqxxz-62" value="1" style="resizable=0;align=right;verticalAlign=top;labelBackgroundColor=#ffffff;fontSize=10;strokeColor=#003366;shadow=1;fillColor=#D4E1F5;fontColor=#003366" connectable="0" vertex="1" parent="NT1We_9h5WOlSeQwqxxz-60">
          <mxGeometry x="1" relative="1" as="geometry">
            <mxPoint x="-4" y="-31" as="offset" />
          </mxGeometry>
        </mxCell>
        <mxCell id="NT1We_9h5WOlSeQwqxxz-63" value="" style="endArrow=open;endSize=12;startArrow=diamondThin;startSize=14;startFill=0;exitX=0.5;exitY=0;exitDx=0;exitDy=0;rounded=1;jumpStyle=none;entryX=0;entryY=1;entryDx=0;entryDy=0;" edge="1" parent="1" source="iJFXVLA7aNA4dNakx_lX-4" target="uM8Gslu0TCIED0904_-n-1">
          <mxGeometry x="-510.6400000000001" y="175.6600000000003" as="geometry">
            <mxPoint x="410" y="200" as="sourcePoint" />
            <mxPoint x="480" y="110" as="targetPoint" />
          </mxGeometry>
        </mxCell>
        <mxCell id="NT1We_9h5WOlSeQwqxxz-64" value="0..n" style="resizable=0;align=left;verticalAlign=top;labelBackgroundColor=#ffffff;fontSize=10;strokeColor=#003366;shadow=1;fillColor=#D4E1F5;fontColor=#003366" connectable="0" vertex="1" parent="NT1We_9h5WOlSeQwqxxz-63">
          <mxGeometry x="-1" relative="1" as="geometry">
            <mxPoint x="10" y="-30" as="offset" />
          </mxGeometry>
        </mxCell>
        <mxCell id="NT1We_9h5WOlSeQwqxxz-65" value="1" style="resizable=0;align=right;verticalAlign=top;labelBackgroundColor=#ffffff;fontSize=10;strokeColor=#003366;shadow=1;fillColor=#D4E1F5;fontColor=#003366" connectable="0" vertex="1" parent="NT1We_9h5WOlSeQwqxxz-63">
          <mxGeometry x="1" relative="1" as="geometry">
            <mxPoint x="-4" y="-31" as="offset" />
          </mxGeometry>
        </mxCell>
        <mxCell id="NT1We_9h5WOlSeQwqxxz-69" value="" style="endArrow=open;endSize=12;startArrow=diamondThin;startSize=14;startFill=0;exitX=0.5;exitY=0;exitDx=0;exitDy=0;entryX=1;entryY=1;entryDx=0;entryDy=0;" edge="1" parent="1" source="uM8Gslu0TCIED0904_-n-2" target="uM8Gslu0TCIED0904_-n-1">
          <mxGeometry x="-360.6400000000001" y="115.66000000000031" as="geometry">
            <mxPoint x="190" y="-30" as="sourcePoint" />
            <mxPoint x="490" y="120" as="targetPoint" />
          </mxGeometry>
        </mxCell>
        <mxCell id="NT1We_9h5WOlSeQwqxxz-70" value="0..n" style="resizable=0;align=left;verticalAlign=top;labelBackgroundColor=#ffffff;fontSize=10;strokeColor=#003366;shadow=1;fillColor=#D4E1F5;fontColor=#003366" connectable="0" vertex="1" parent="NT1We_9h5WOlSeQwqxxz-69">
          <mxGeometry x="-1" relative="1" as="geometry">
            <mxPoint x="-30" y="-31" as="offset" />
          </mxGeometry>
        </mxCell>
        <mxCell id="NT1We_9h5WOlSeQwqxxz-71" value="1" style="resizable=0;align=right;verticalAlign=top;labelBackgroundColor=#ffffff;fontSize=10;strokeColor=#003366;shadow=1;fillColor=#D4E1F5;fontColor=#003366" connectable="0" vertex="1" parent="NT1We_9h5WOlSeQwqxxz-69">
          <mxGeometry x="1" relative="1" as="geometry">
            <mxPoint x="30" y="10" as="offset" />
          </mxGeometry>
        </mxCell>
        <mxCell id="NT1We_9h5WOlSeQwqxxz-72" value="&lt;p style=&quot;margin: 4px 0px 0px; text-align: center;&quot;&gt;&lt;b&gt;&lt;u&gt;FileRelationDO&lt;/u&gt;&lt;/b&gt;&lt;br&gt;&lt;/p&gt;&lt;p style=&quot;margin: 4px 0px 0px; text-align: center;&quot;&gt;&lt;b&gt;&lt;u&gt;商品offer图片&lt;/u&gt;&lt;/b&gt;&lt;br&gt;&lt;/p&gt;&lt;hr&gt;&lt;p style=&quot;margin: 0px; margin-left: 8px;&quot;&gt;type=ProductOfferSpu&lt;br&gt;&lt;/p&gt;" style="verticalAlign=top;align=left;overflow=fill;fontSize=12;fontFamily=Helvetica;html=1;strokeColor=#003366;shadow=1;fillColor=#D4E1F5;fontColor=#003366" vertex="1" parent="1">
          <mxGeometry x="850" y="90" width="160" height="70" as="geometry" />
        </mxCell>
        <mxCell id="NT1We_9h5WOlSeQwqxxz-73" value="" style="endArrow=open;endSize=12;startArrow=diamondThin;startSize=14;startFill=0;entryX=1;entryY=0.75;entryDx=0;entryDy=0;" edge="1" parent="1" source="NT1We_9h5WOlSeQwqxxz-72" target="uM8Gslu0TCIED0904_-n-1">
          <mxGeometry x="-360.6400000000001" y="115.66000000000031" as="geometry">
            <mxPoint x="950" y="-30" as="sourcePoint" />
            <mxPoint x="610" y="120" as="targetPoint" />
          </mxGeometry>
        </mxCell>
        <mxCell id="NT1We_9h5WOlSeQwqxxz-74" value="0..n" style="resizable=0;align=left;verticalAlign=top;labelBackgroundColor=#ffffff;fontSize=10;strokeColor=#003366;shadow=1;fillColor=#D4E1F5;fontColor=#003366" connectable="0" vertex="1" parent="NT1We_9h5WOlSeQwqxxz-73">
          <mxGeometry x="-1" relative="1" as="geometry">
            <mxPoint x="-30" y="-3" as="offset" />
          </mxGeometry>
        </mxCell>
        <mxCell id="NT1We_9h5WOlSeQwqxxz-75" value="1" style="resizable=0;align=right;verticalAlign=top;labelBackgroundColor=#ffffff;fontSize=10;strokeColor=#003366;shadow=1;fillColor=#D4E1F5;fontColor=#003366" connectable="0" vertex="1" parent="NT1We_9h5WOlSeQwqxxz-73">
          <mxGeometry x="1" relative="1" as="geometry">
            <mxPoint x="28" y="-25" as="offset" />
          </mxGeometry>
        </mxCell>
        <mxCell id="NT1We_9h5WOlSeQwqxxz-76" value="offer图片" style="edgeLabel;html=1;align=center;verticalAlign=middle;resizable=0;points=[];" vertex="1" connectable="0" parent="NT1We_9h5WOlSeQwqxxz-73">
          <mxGeometry relative="1" as="geometry">
            <mxPoint x="-10" y="-1" as="offset" />
          </mxGeometry>
        </mxCell>
      </root>
    </mxGraphModel>
  </diagram>
  <diagram id="ole8TxPuXgZ1YIxKI4ov" name="样品">
    <mxGraphModel dx="1050" dy="617" grid="1" gridSize="10" guides="1" tooltips="1" connect="1" arrows="1" fold="1" page="1" pageScale="1" pageWidth="827" pageHeight="1169" math="0" shadow="0">
      <root>
        <mxCell id="0" />
        <mxCell id="1" parent="0" />
        <mxCell id="ssUa44vPcJU894ZtS1n--1" value="&lt;p style=&quot;margin: 4px 0px 0px; text-align: center;&quot;&gt;&lt;b&gt;&lt;u&gt;ProductSku&lt;/u&gt;&lt;/b&gt;&lt;/p&gt;&lt;p style=&quot;margin: 4px 0px 0px; text-align: center;&quot;&gt;商品sku&lt;/p&gt;&lt;hr&gt;&lt;p style=&quot;margin: 0px; margin-left: 8px;&quot;&gt;&lt;span style=&quot;background-color: initial;&quot;&gt;name&amp;nbsp; &amp;nbsp; &amp;nbsp; &amp;nbsp; &amp;nbsp; &amp;nbsp; 名称&lt;/span&gt;&lt;br&gt;&lt;/p&gt;&lt;p style=&quot;margin: 0px; margin-left: 8px;&quot;&gt;&lt;br&gt;&lt;/p&gt;" style="verticalAlign=top;align=left;overflow=fill;fontSize=12;fontFamily=Helvetica;html=1;strokeColor=#003366;shadow=1;fillColor=#D4E1F5;fontColor=#003366" parent="1" vertex="1">
          <mxGeometry x="320" y="370" width="160" height="70" as="geometry" />
        </mxCell>
        <mxCell id="ssUa44vPcJU894ZtS1n--2" value="&lt;p style=&quot;margin: 4px 0px 0px; text-align: center;&quot;&gt;&lt;b&gt;&lt;u&gt;GoodsSku&lt;/u&gt;&lt;/b&gt;&lt;/p&gt;&lt;p style=&quot;margin: 4px 0px 0px; text-align: center;&quot;&gt;样品&lt;/p&gt;&lt;hr&gt;&lt;p style=&quot;margin: 0px; margin-left: 8px;&quot;&gt;&lt;span style=&quot;background-color: initial;&quot;&gt;name&amp;nbsp; &amp;nbsp; &amp;nbsp; &amp;nbsp; &amp;nbsp; &amp;nbsp; 名称&lt;/span&gt;&lt;br&gt;&lt;/p&gt;&lt;p style=&quot;margin: 0px; margin-left: 8px;&quot;&gt;productSkuId 商品sku&lt;/p&gt;" style="verticalAlign=top;align=left;overflow=fill;fontSize=12;fontFamily=Helvetica;html=1;strokeColor=#003366;shadow=1;fillColor=#D4E1F5;fontColor=#003366" parent="1" vertex="1">
          <mxGeometry x="320" y="140" width="160" height="100" as="geometry" />
        </mxCell>
        <mxCell id="5rL763xk1istfQa96kvx-1" value="Use" style="endArrow=open;endSize=12;dashed=1;exitX=0.5;exitY=1;exitDx=0;exitDy=0;" parent="1" source="ssUa44vPcJU894ZtS1n--2" edge="1">
          <mxGeometry x="288.92" y="93.3599999999999" as="geometry">
            <mxPoint x="220.07999999999993" y="520" as="sourcePoint" />
            <mxPoint x="400" y="370" as="targetPoint" />
          </mxGeometry>
        </mxCell>
      </root>
    </mxGraphModel>
  </diagram>
  <diagram id="apyGPRxjoDRJVZl47RXx" name="QC资质审批">
    <mxGraphModel dx="1877" dy="617" grid="1" gridSize="10" guides="1" tooltips="1" connect="1" arrows="1" fold="1" page="1" pageScale="1" pageWidth="827" pageHeight="1169" math="0" shadow="0">
      <root>
        <mxCell id="0" />
        <mxCell id="1" parent="0" />
        <mxCell id="PbW5qiwsdzICnOcbVt3K-1" value="&lt;p style=&quot;margin: 4px 0px 0px; text-align: center;&quot;&gt;&lt;b&gt;&lt;u&gt;QcCertAppr&lt;/u&gt;&lt;/b&gt;&lt;br&gt;&lt;/p&gt;&lt;p style=&quot;margin: 4px 0px 0px; text-align: center;&quot;&gt;QC资质审核表&lt;br&gt;&lt;/p&gt;&lt;hr&gt;&amp;nbsp; offerSpuId&amp;nbsp; offerId&lt;br&gt;&lt;p style=&quot;margin: 0px; margin-left: 8px;&quot;&gt;&lt;br&gt;&lt;/p&gt;" style="verticalAlign=top;align=left;overflow=fill;fontSize=12;fontFamily=Helvetica;html=1;strokeColor=#003366;shadow=1;fillColor=#D4E1F5;fontColor=#003366" parent="1" vertex="1">
          <mxGeometry x="360" y="140" width="160" height="70" as="geometry" />
        </mxCell>
        <mxCell id="PbW5qiwsdzICnOcbVt3K-2" value="&lt;p style=&quot;margin: 4px 0px 0px; text-align: center;&quot;&gt;&lt;b&gt;&lt;u&gt;ProductSkuCertInfo&lt;/u&gt;&lt;/b&gt;&lt;br&gt;&lt;/p&gt;&lt;p style=&quot;margin: 4px 0px 0px; text-align: center;&quot;&gt;产品资质信息表&lt;br&gt;&lt;/p&gt;&lt;hr&gt;&amp;nbsp; skuId&amp;nbsp; &amp;nbsp; &amp;nbsp; &amp;nbsp; &amp;nbsp; &amp;nbsp; &amp;nbsp;skuId&lt;br&gt;&amp;nbsp;&amp;nbsp;offerId&amp;nbsp; &amp;nbsp; &amp;nbsp; &amp;nbsp; &amp;nbsp; &amp;nbsp;offerId&lt;br&gt;&amp;nbsp; offerSkuId&amp;nbsp; &amp;nbsp; &amp;nbsp;offerSkuId&lt;br&gt;&lt;p style=&quot;margin: 0px; margin-left: 8px;&quot;&gt;giftId&amp;nbsp; &amp;nbsp; &amp;nbsp; &amp;nbsp; &amp;nbsp; &amp;nbsp; &amp;nbsp;赠品ID&lt;br&gt;&lt;/p&gt;" style="verticalAlign=top;align=left;overflow=fill;fontSize=12;fontFamily=Helvetica;html=1;strokeColor=#003366;shadow=1;fillColor=#D4E1F5;fontColor=#003366" parent="1" vertex="1">
          <mxGeometry x="210" y="280" width="160" height="110" as="geometry" />
        </mxCell>
        <mxCell id="PbW5qiwsdzICnOcbVt3K-3" value="&lt;p style=&quot;margin: 4px 0px 0px; text-align: center;&quot;&gt;&lt;b&gt;&lt;u&gt;CompanyCertInfo&lt;/u&gt;&lt;/b&gt;&lt;br&gt;&lt;/p&gt;&lt;p style=&quot;margin: 4px 0px 0px; text-align: center;&quot;&gt;商家资质信息表&lt;br&gt;&lt;/p&gt;&lt;hr&gt;&amp;nbsp; brandId&amp;nbsp; 品牌ID&lt;br&gt;&lt;p style=&quot;margin: 0px; margin-left: 8px;&quot;&gt;&lt;br&gt;&lt;/p&gt;" style="verticalAlign=top;align=left;overflow=fill;fontSize=12;fontFamily=Helvetica;html=1;strokeColor=#003366;shadow=1;fillColor=#D4E1F5;fontColor=#003366" parent="1" vertex="1">
          <mxGeometry x="510" y="310" width="160" height="70" as="geometry" />
        </mxCell>
        <mxCell id="ydibEglt0In1S4E0ARg2-1" value="" style="endArrow=open;html=1;endSize=12;startArrow=diamondThin;startSize=14;startFill=0;edgeStyle=orthogonalEdgeStyle;rounded=0;entryX=0;entryY=0.5;entryDx=0;entryDy=0;exitX=0.5;exitY=0;exitDx=0;exitDy=0;" parent="1" source="PbW5qiwsdzICnOcbVt3K-2" target="PbW5qiwsdzICnOcbVt3K-1" edge="1">
          <mxGeometry relative="1" as="geometry">
            <mxPoint x="220" y="240" as="sourcePoint" />
            <mxPoint x="380" y="240" as="targetPoint" />
          </mxGeometry>
        </mxCell>
        <mxCell id="ydibEglt0In1S4E0ARg2-2" value="0..n" style="edgeLabel;resizable=0;html=1;align=left;verticalAlign=top;" parent="ydibEglt0In1S4E0ARg2-1" connectable="0" vertex="1">
          <mxGeometry x="-1" relative="1" as="geometry">
            <mxPoint y="-40" as="offset" />
          </mxGeometry>
        </mxCell>
        <mxCell id="ydibEglt0In1S4E0ARg2-3" value="1" style="edgeLabel;resizable=0;html=1;align=right;verticalAlign=top;" parent="ydibEglt0In1S4E0ARg2-1" connectable="0" vertex="1">
          <mxGeometry x="1" relative="1" as="geometry">
            <mxPoint x="-10" as="offset" />
          </mxGeometry>
        </mxCell>
        <mxCell id="ydibEglt0In1S4E0ARg2-4" value="" style="endArrow=open;html=1;endSize=12;startArrow=diamondThin;startSize=14;startFill=0;edgeStyle=orthogonalEdgeStyle;rounded=0;entryX=1;entryY=0.5;entryDx=0;entryDy=0;exitX=0.5;exitY=0;exitDx=0;exitDy=0;" parent="1" source="PbW5qiwsdzICnOcbVt3K-3" target="PbW5qiwsdzICnOcbVt3K-1" edge="1">
          <mxGeometry relative="1" as="geometry">
            <mxPoint x="650" y="200" as="sourcePoint" />
            <mxPoint x="810" y="200" as="targetPoint" />
          </mxGeometry>
        </mxCell>
        <mxCell id="ydibEglt0In1S4E0ARg2-5" value="0..n" style="edgeLabel;resizable=0;html=1;align=left;verticalAlign=top;" parent="ydibEglt0In1S4E0ARg2-4" connectable="0" vertex="1">
          <mxGeometry x="-1" relative="1" as="geometry">
            <mxPoint x="10" y="-30" as="offset" />
          </mxGeometry>
        </mxCell>
        <mxCell id="ydibEglt0In1S4E0ARg2-6" value="1" style="edgeLabel;resizable=0;html=1;align=right;verticalAlign=top;" parent="ydibEglt0In1S4E0ARg2-4" connectable="0" vertex="1">
          <mxGeometry x="1" relative="1" as="geometry">
            <mxPoint x="20" as="offset" />
          </mxGeometry>
        </mxCell>
        <mxCell id="ydibEglt0In1S4E0ARg2-7" value="&lt;p style=&quot;margin: 4px 0px 0px; text-align: center;&quot;&gt;&lt;b&gt;&lt;u&gt;CertDocType&lt;/u&gt;&lt;/b&gt;&lt;br&gt;&lt;/p&gt;&lt;p style=&quot;margin: 4px 0px 0px; text-align: center;&quot;&gt;资质文件类型&lt;br&gt;&lt;/p&gt;&lt;hr&gt;&amp;nbsp; companyCertInfo&amp;nbsp; &amp;nbsp; &amp;nbsp;商家资质&lt;br&gt;&lt;p style=&quot;margin: 0px; margin-left: 8px;&quot;&gt;productSkuCertInfo 产品资质&lt;br&gt;&lt;/p&gt;" style="verticalAlign=top;align=left;overflow=fill;fontSize=12;fontFamily=Helvetica;html=1;strokeColor=#003366;shadow=1;fillColor=#D4E1F5;fontColor=#003366" parent="1" vertex="1">
          <mxGeometry x="340" y="490" width="180" height="100" as="geometry" />
        </mxCell>
        <mxCell id="ydibEglt0In1S4E0ARg2-9" value="" style="edgeStyle=orthogonalEdgeStyle;rounded=0;orthogonalLoop=1;jettySize=auto;html=1;" parent="1" source="ydibEglt0In1S4E0ARg2-8" target="ydibEglt0In1S4E0ARg2-7" edge="1">
          <mxGeometry relative="1" as="geometry" />
        </mxCell>
        <mxCell id="ydibEglt0In1S4E0ARg2-8" value="资质文件类型和商家资质是多对一关系&lt;br&gt;资质文件类型和产品资质是多对一关系" style="text;html=1;strokeColor=none;fillColor=none;align=center;verticalAlign=middle;whiteSpace=wrap;rounded=0;" parent="1" vertex="1">
          <mxGeometry x="-40" y="520" width="230" height="40" as="geometry" />
        </mxCell>
        <mxCell id="ydibEglt0In1S4E0ARg2-11" value="Use" style="endArrow=open;endSize=12;dashed=1;html=1;rounded=0;entryX=0.5;entryY=1;entryDx=0;entryDy=0;exitX=0.75;exitY=0;exitDx=0;exitDy=0;" parent="1" source="ydibEglt0In1S4E0ARg2-7" target="PbW5qiwsdzICnOcbVt3K-3" edge="1">
          <mxGeometry width="160" relative="1" as="geometry">
            <mxPoint x="470" y="390" as="sourcePoint" />
            <mxPoint x="630" y="390" as="targetPoint" />
          </mxGeometry>
        </mxCell>
        <mxCell id="ydibEglt0In1S4E0ARg2-12" value="Use" style="endArrow=open;endSize=12;dashed=1;html=1;rounded=0;entryX=0.5;entryY=1;entryDx=0;entryDy=0;exitX=0.25;exitY=0;exitDx=0;exitDy=0;" parent="1" source="ydibEglt0In1S4E0ARg2-7" target="PbW5qiwsdzICnOcbVt3K-2" edge="1">
          <mxGeometry width="160" relative="1" as="geometry">
            <mxPoint x="190" y="430" as="sourcePoint" />
            <mxPoint x="350" y="430" as="targetPoint" />
          </mxGeometry>
        </mxCell>
        <mxCell id="ydibEglt0In1S4E0ARg2-13" value="&lt;p style=&quot;margin: 4px 0px 0px; text-align: center;&quot;&gt;&lt;b&gt;&lt;u&gt;CertDoc&lt;/u&gt;&lt;/b&gt;&lt;br&gt;&lt;/p&gt;&lt;p style=&quot;margin: 4px 0px 0px; text-align: center;&quot;&gt;资质文件表&lt;br&gt;&lt;/p&gt;&lt;hr&gt;&amp;nbsp;&amp;nbsp;" style="verticalAlign=top;align=left;overflow=fill;fontSize=12;fontFamily=Helvetica;html=1;strokeColor=#003366;shadow=1;fillColor=#D4E1F5;fontColor=#003366" parent="1" vertex="1">
          <mxGeometry x="340" y="670" width="180" height="80" as="geometry" />
        </mxCell>
        <mxCell id="ydibEglt0In1S4E0ARg2-14" value="" style="endArrow=open;html=1;endSize=12;startArrow=diamondThin;startSize=14;startFill=0;edgeStyle=orthogonalEdgeStyle;rounded=0;entryX=0.5;entryY=1;entryDx=0;entryDy=0;" parent="1" source="ydibEglt0In1S4E0ARg2-13" target="ydibEglt0In1S4E0ARg2-7" edge="1">
          <mxGeometry relative="1" as="geometry">
            <mxPoint x="600" y="320" as="sourcePoint" />
            <mxPoint x="530" y="185" as="targetPoint" />
          </mxGeometry>
        </mxCell>
        <mxCell id="ydibEglt0In1S4E0ARg2-15" value="0..n" style="edgeLabel;resizable=0;html=1;align=left;verticalAlign=top;" parent="ydibEglt0In1S4E0ARg2-14" connectable="0" vertex="1">
          <mxGeometry x="-1" relative="1" as="geometry">
            <mxPoint x="10" y="-30" as="offset" />
          </mxGeometry>
        </mxCell>
        <mxCell id="ydibEglt0In1S4E0ARg2-16" value="1" style="edgeLabel;resizable=0;html=1;align=right;verticalAlign=top;" parent="ydibEglt0In1S4E0ARg2-14" connectable="0" vertex="1">
          <mxGeometry x="1" relative="1" as="geometry">
            <mxPoint x="20" as="offset" />
          </mxGeometry>
        </mxCell>
        <mxCell id="ydibEglt0In1S4E0ARg2-17" value="&lt;p style=&quot;margin: 4px 0px 0px; text-align: center;&quot;&gt;&lt;b&gt;&lt;u&gt;CertDocAttachment&lt;/u&gt;&lt;/b&gt;&lt;br&gt;&lt;/p&gt;&lt;p style=&quot;margin: 4px 0px 0px; text-align: center;&quot;&gt;资质文件附件表&lt;br&gt;&lt;/p&gt;&lt;hr&gt;&amp;nbsp;&amp;nbsp;" style="verticalAlign=top;align=left;overflow=fill;fontSize=12;fontFamily=Helvetica;html=1;strokeColor=#003366;shadow=1;fillColor=#D4E1F5;fontColor=#003366" parent="1" vertex="1">
          <mxGeometry x="340" y="830" width="180" height="80" as="geometry" />
        </mxCell>
        <mxCell id="ydibEglt0In1S4E0ARg2-18" value="" style="endArrow=open;html=1;endSize=12;startArrow=diamondThin;startSize=14;startFill=0;edgeStyle=orthogonalEdgeStyle;rounded=0;entryX=0.5;entryY=1;entryDx=0;entryDy=0;exitX=0.5;exitY=0;exitDx=0;exitDy=0;" parent="1" source="ydibEglt0In1S4E0ARg2-17" target="ydibEglt0In1S4E0ARg2-13" edge="1">
          <mxGeometry relative="1" as="geometry">
            <mxPoint x="440" y="680" as="sourcePoint" />
            <mxPoint x="440" y="600" as="targetPoint" />
          </mxGeometry>
        </mxCell>
        <mxCell id="ydibEglt0In1S4E0ARg2-19" value="0..n" style="edgeLabel;resizable=0;html=1;align=left;verticalAlign=top;" parent="ydibEglt0In1S4E0ARg2-18" connectable="0" vertex="1">
          <mxGeometry x="-1" relative="1" as="geometry">
            <mxPoint x="10" y="-30" as="offset" />
          </mxGeometry>
        </mxCell>
        <mxCell id="ydibEglt0In1S4E0ARg2-20" value="1" style="edgeLabel;resizable=0;html=1;align=right;verticalAlign=top;" parent="ydibEglt0In1S4E0ARg2-18" connectable="0" vertex="1">
          <mxGeometry x="1" relative="1" as="geometry">
            <mxPoint x="20" as="offset" />
          </mxGeometry>
        </mxCell>
        <mxCell id="ydibEglt0In1S4E0ARg2-21" value="&lt;p style=&quot;margin: 4px 0px 0px; text-align: center;&quot;&gt;&lt;b&gt;&lt;u&gt;CertDocAppr&lt;/u&gt;&lt;/b&gt;&lt;br&gt;&lt;/p&gt;&lt;p style=&quot;margin: 4px 0px 0px; text-align: center;&quot;&gt;资质文件审核表&lt;br&gt;&lt;/p&gt;&lt;hr&gt;&amp;nbsp;&amp;nbsp;" style="verticalAlign=top;align=left;overflow=fill;fontSize=12;fontFamily=Helvetica;html=1;strokeColor=#003366;shadow=1;fillColor=#D4E1F5;fontColor=#003366" parent="1" vertex="1">
          <mxGeometry x="630" y="670" width="180" height="80" as="geometry" />
        </mxCell>
        <mxCell id="ydibEglt0In1S4E0ARg2-22" value="" style="endArrow=open;html=1;endSize=12;startArrow=diamondThin;startSize=14;startFill=0;edgeStyle=orthogonalEdgeStyle;rounded=0;exitX=0;exitY=0.5;exitDx=0;exitDy=0;" parent="1" source="ydibEglt0In1S4E0ARg2-21" edge="1">
          <mxGeometry relative="1" as="geometry">
            <mxPoint x="440" y="840" as="sourcePoint" />
            <mxPoint x="520" y="710" as="targetPoint" />
          </mxGeometry>
        </mxCell>
        <mxCell id="ydibEglt0In1S4E0ARg2-23" value="0..n" style="edgeLabel;resizable=0;html=1;align=left;verticalAlign=top;" parent="ydibEglt0In1S4E0ARg2-22" connectable="0" vertex="1">
          <mxGeometry x="-1" relative="1" as="geometry">
            <mxPoint x="-30" y="-30" as="offset" />
          </mxGeometry>
        </mxCell>
        <mxCell id="ydibEglt0In1S4E0ARg2-24" value="1" style="edgeLabel;resizable=0;html=1;align=right;verticalAlign=top;" parent="ydibEglt0In1S4E0ARg2-22" connectable="0" vertex="1">
          <mxGeometry x="1" relative="1" as="geometry">
            <mxPoint x="20" as="offset" />
          </mxGeometry>
        </mxCell>
        <mxCell id="ydibEglt0In1S4E0ARg2-25" value="&lt;p style=&quot;margin: 4px 0px 0px; text-align: center;&quot;&gt;&lt;b&gt;&lt;u&gt;CertDocApprComment&lt;/u&gt;&lt;/b&gt;&lt;br&gt;&lt;/p&gt;&lt;p style=&quot;margin: 4px 0px 0px; text-align: center;&quot;&gt;资质文件审核记录表&lt;br&gt;&lt;/p&gt;&lt;hr&gt;&amp;nbsp;&amp;nbsp;" style="verticalAlign=top;align=left;overflow=fill;fontSize=12;fontFamily=Helvetica;html=1;strokeColor=#003366;shadow=1;fillColor=#D4E1F5;fontColor=#003366" parent="1" vertex="1">
          <mxGeometry x="900" y="670" width="180" height="80" as="geometry" />
        </mxCell>
        <mxCell id="ydibEglt0In1S4E0ARg2-26" value="" style="endArrow=open;html=1;endSize=12;startArrow=diamondThin;startSize=14;startFill=0;edgeStyle=orthogonalEdgeStyle;rounded=0;exitX=0;exitY=0.5;exitDx=0;exitDy=0;" parent="1" source="ydibEglt0In1S4E0ARg2-25" edge="1">
          <mxGeometry relative="1" as="geometry">
            <mxPoint x="640" y="720" as="sourcePoint" />
            <mxPoint x="810" y="710" as="targetPoint" />
          </mxGeometry>
        </mxCell>
        <mxCell id="ydibEglt0In1S4E0ARg2-27" value="0..n" style="edgeLabel;resizable=0;html=1;align=left;verticalAlign=top;" parent="ydibEglt0In1S4E0ARg2-26" connectable="0" vertex="1">
          <mxGeometry x="-1" relative="1" as="geometry">
            <mxPoint x="-30" y="-30" as="offset" />
          </mxGeometry>
        </mxCell>
        <mxCell id="ydibEglt0In1S4E0ARg2-28" value="1" style="edgeLabel;resizable=0;html=1;align=right;verticalAlign=top;" parent="ydibEglt0In1S4E0ARg2-26" connectable="0" vertex="1">
          <mxGeometry x="1" relative="1" as="geometry">
            <mxPoint x="20" as="offset" />
          </mxGeometry>
        </mxCell>
        <mxCell id="ydibEglt0In1S4E0ARg2-30" value="&lt;p style=&quot;margin: 4px 0px 0px; text-align: center;&quot;&gt;&lt;b&gt;&lt;u&gt;CertCompanyDocType&lt;/u&gt;&lt;/b&gt;&lt;br&gt;&lt;/p&gt;&lt;p style=&quot;margin: 4px 0px 0px; text-align: center;&quot;&gt;商家和资质文件类型关联配置表&lt;br&gt;&lt;/p&gt;&lt;hr&gt;&amp;nbsp; certDocType&amp;nbsp;&amp;nbsp;资质文件类型" style="verticalAlign=top;align=left;overflow=fill;fontSize=12;fontFamily=Helvetica;html=1;strokeColor=#003366;shadow=1;fillColor=#D4E1F5;fontColor=#003366" parent="1" vertex="1">
          <mxGeometry x="970" y="450" width="180" height="70" as="geometry" />
        </mxCell>
        <mxCell id="ydibEglt0In1S4E0ARg2-31" value="&lt;p style=&quot;margin: 4px 0px 0px; text-align: center;&quot;&gt;&lt;b&gt;&lt;u&gt;CertSkuDocType&lt;/u&gt;&lt;/b&gt;&lt;br&gt;&lt;/p&gt;&lt;p style=&quot;margin: 4px 0px 0px; text-align: center;&quot;&gt;Sku和offer资质文件类型关联配置表&lt;br&gt;&lt;/p&gt;&lt;hr&gt;&amp;nbsp; certDocType&amp;nbsp;&amp;nbsp;资质文件类型" style="verticalAlign=top;align=left;overflow=fill;fontSize=12;fontFamily=Helvetica;html=1;strokeColor=#003366;shadow=1;fillColor=#D4E1F5;fontColor=#003366" parent="1" vertex="1">
          <mxGeometry x="960" y="320" width="200" height="70" as="geometry" />
        </mxCell>
        <mxCell id="ydibEglt0In1S4E0ARg2-32" value="&lt;p style=&quot;margin: 4px 0px 0px; text-align: center;&quot;&gt;&lt;b&gt;&lt;u&gt;CertApprGroupConfig&lt;/u&gt;&lt;/b&gt;&lt;br&gt;&lt;/p&gt;&lt;p style=&quot;margin: 4px 0px 0px; text-align: center;&quot;&gt;审批配置表&lt;br&gt;&lt;/p&gt;&lt;hr&gt;&amp;nbsp;&amp;nbsp;" style="verticalAlign=top;align=left;overflow=fill;fontSize=12;fontFamily=Helvetica;html=1;strokeColor=#003366;shadow=1;fillColor=#D4E1F5;fontColor=#003366" parent="1" vertex="1">
          <mxGeometry x="985" y="210" width="150" height="70" as="geometry" />
        </mxCell>
        <mxCell id="pxVAONNM2juBGcfnUNNN-6" value="" style="rounded=0;whiteSpace=wrap;html=1;imageAspect=1;fillColor=none;dashed=1;dashPattern=8 8;glass=0;shadow=0;" parent="1" vertex="1">
          <mxGeometry x="900" y="180" width="350" height="380" as="geometry" />
        </mxCell>
        <mxCell id="pxVAONNM2juBGcfnUNNN-7" value="配置表" style="text;strokeColor=none;fillColor=none;html=1;fontSize=24;fontStyle=1;verticalAlign=middle;align=center;" parent="1" vertex="1">
          <mxGeometry x="1025" y="140" width="100" height="40" as="geometry" />
        </mxCell>
      </root>
    </mxGraphModel>
  </diagram>
  <diagram id="cbZgbGCBb2TttwFcmZLJ" name="合同">
    <mxGraphModel dx="1050" dy="617" grid="1" gridSize="10" guides="1" tooltips="1" connect="1" arrows="1" fold="1" page="1" pageScale="1" pageWidth="827" pageHeight="1169" math="0" shadow="0">
      <root>
        <mxCell id="0" />
        <mxCell id="1" parent="0" />
        <mxCell id="BSF3eEj6T0vC_s2HLx2t-1" value="&lt;p style=&quot;margin: 4px 0px 0px; text-align: center;&quot;&gt;&lt;b&gt;&lt;u&gt;Counterpart&lt;/u&gt;&lt;/b&gt;&lt;br&gt;&lt;/p&gt;&lt;p style=&quot;margin: 4px 0px 0px; text-align: center;&quot;&gt;相对方管理表&lt;br&gt;&lt;/p&gt;&lt;hr&gt;&amp;nbsp;&amp;nbsp;&lt;br&gt;&lt;p style=&quot;margin: 0px; margin-left: 8px;&quot;&gt;&lt;br&gt;&lt;/p&gt;" style="verticalAlign=top;align=left;overflow=fill;fontSize=12;fontFamily=Helvetica;html=1;strokeColor=#003366;shadow=1;fillColor=#D4E1F5;fontColor=#003366" vertex="1" parent="1">
          <mxGeometry x="370" y="160" width="160" height="70" as="geometry" />
        </mxCell>
        <mxCell id="BSF3eEj6T0vC_s2HLx2t-2" value="&lt;p style=&quot;margin: 4px 0px 0px; text-align: center;&quot;&gt;&lt;b&gt;&lt;u&gt;ContactInfo&lt;/u&gt;&lt;/b&gt;&lt;br&gt;&lt;/p&gt;&lt;p style=&quot;margin: 4px 0px 0px; text-align: center;&quot;&gt;联系人信息&lt;br&gt;&lt;/p&gt;&lt;hr&gt;&amp;nbsp;&amp;nbsp;&lt;br&gt;&lt;p style=&quot;margin: 0px; margin-left: 8px;&quot;&gt;&lt;br&gt;&lt;/p&gt;" style="verticalAlign=top;align=left;overflow=fill;fontSize=12;fontFamily=Helvetica;html=1;strokeColor=#003366;shadow=1;fillColor=#D4E1F5;fontColor=#003366" vertex="1" parent="1">
          <mxGeometry x="100" y="50" width="160" height="70" as="geometry" />
        </mxCell>
        <mxCell id="BSF3eEj6T0vC_s2HLx2t-3" value="" style="endArrow=open;html=1;endSize=12;startArrow=diamondThin;startSize=14;startFill=0;edgeStyle=orthogonalEdgeStyle;rounded=0;entryX=0;entryY=0.5;entryDx=0;entryDy=0;exitX=0.5;exitY=1;exitDx=0;exitDy=0;" edge="1" parent="1" source="BSF3eEj6T0vC_s2HLx2t-2" target="BSF3eEj6T0vC_s2HLx2t-1">
          <mxGeometry x="0.0495" y="-7" relative="1" as="geometry">
            <mxPoint x="200" y="270" as="sourcePoint" />
            <mxPoint x="360" y="270" as="targetPoint" />
            <mxPoint x="1" y="1" as="offset" />
          </mxGeometry>
        </mxCell>
        <mxCell id="BSF3eEj6T0vC_s2HLx2t-4" value="0..n" style="edgeLabel;resizable=0;html=1;align=left;verticalAlign=top;" connectable="0" vertex="1" parent="BSF3eEj6T0vC_s2HLx2t-3">
          <mxGeometry x="-1" relative="1" as="geometry">
            <mxPoint x="10" as="offset" />
          </mxGeometry>
        </mxCell>
        <mxCell id="BSF3eEj6T0vC_s2HLx2t-5" value="1" style="edgeLabel;resizable=0;html=1;align=right;verticalAlign=top;" connectable="0" vertex="1" parent="BSF3eEj6T0vC_s2HLx2t-3">
          <mxGeometry x="1" relative="1" as="geometry">
            <mxPoint x="-10" as="offset" />
          </mxGeometry>
        </mxCell>
        <mxCell id="BSF3eEj6T0vC_s2HLx2t-6" value="&lt;p style=&quot;margin: 4px 0px 0px; text-align: center;&quot;&gt;&lt;b&gt;&lt;u&gt;CertInfo&lt;/u&gt;&lt;/b&gt;&lt;br&gt;&lt;/p&gt;&lt;p style=&quot;margin: 4px 0px 0px; text-align: center;&quot;&gt;资质证件信息&lt;br&gt;&lt;/p&gt;&lt;hr&gt;&amp;nbsp;&amp;nbsp;&lt;br&gt;&lt;p style=&quot;margin: 0px; margin-left: 8px;&quot;&gt;&lt;br&gt;&lt;/p&gt;" style="verticalAlign=top;align=left;overflow=fill;fontSize=12;fontFamily=Helvetica;html=1;strokeColor=#003366;shadow=1;fillColor=#D4E1F5;fontColor=#003366" vertex="1" parent="1">
          <mxGeometry x="630" y="40" width="160" height="70" as="geometry" />
        </mxCell>
        <mxCell id="BSF3eEj6T0vC_s2HLx2t-7" value="" style="endArrow=open;html=1;endSize=12;startArrow=diamondThin;startSize=14;startFill=0;edgeStyle=orthogonalEdgeStyle;rounded=0;entryX=1;entryY=0.5;entryDx=0;entryDy=0;exitX=0.5;exitY=1;exitDx=0;exitDy=0;" edge="1" parent="1" source="BSF3eEj6T0vC_s2HLx2t-6" target="BSF3eEj6T0vC_s2HLx2t-1">
          <mxGeometry x="0.0495" y="-7" relative="1" as="geometry">
            <mxPoint x="190" y="130" as="sourcePoint" />
            <mxPoint x="370" y="185" as="targetPoint" />
            <mxPoint x="1" y="1" as="offset" />
          </mxGeometry>
        </mxCell>
        <mxCell id="BSF3eEj6T0vC_s2HLx2t-8" value="0..n" style="edgeLabel;resizable=0;html=1;align=left;verticalAlign=top;" connectable="0" vertex="1" parent="BSF3eEj6T0vC_s2HLx2t-7">
          <mxGeometry x="-1" relative="1" as="geometry">
            <mxPoint x="10" as="offset" />
          </mxGeometry>
        </mxCell>
        <mxCell id="BSF3eEj6T0vC_s2HLx2t-9" value="1" style="edgeLabel;resizable=0;html=1;align=right;verticalAlign=top;" connectable="0" vertex="1" parent="BSF3eEj6T0vC_s2HLx2t-7">
          <mxGeometry x="1" relative="1" as="geometry">
            <mxPoint x="30" as="offset" />
          </mxGeometry>
        </mxCell>
        <mxCell id="BSF3eEj6T0vC_s2HLx2t-10" value="&lt;p style=&quot;margin: 4px 0px 0px; text-align: center;&quot;&gt;&lt;b&gt;&lt;u&gt;CounterpartCert&lt;/u&gt;&lt;/b&gt;&lt;br&gt;&lt;/p&gt;&lt;p style=&quot;margin: 4px 0px 0px; text-align: center;&quot;&gt;相对方资质申请表&lt;br&gt;&lt;/p&gt;&lt;hr&gt;&amp;nbsp;&amp;nbsp;&lt;br&gt;&lt;p style=&quot;margin: 0px; margin-left: 8px;&quot;&gt;&lt;br&gt;&lt;/p&gt;" style="verticalAlign=top;align=left;overflow=fill;fontSize=12;fontFamily=Helvetica;html=1;strokeColor=#003366;shadow=1;fillColor=#D4E1F5;fontColor=#003366" vertex="1" parent="1">
          <mxGeometry x="380" y="320" width="160" height="70" as="geometry" />
        </mxCell>
        <mxCell id="BSF3eEj6T0vC_s2HLx2t-11" value="&lt;p style=&quot;margin: 4px 0px 0px; text-align: center;&quot;&gt;&lt;b&gt;&lt;u&gt;CounterpartCertOffer&lt;/u&gt;&lt;/b&gt;&lt;br&gt;&lt;/p&gt;&lt;p style=&quot;margin: 4px 0px 0px; text-align: center;&quot;&gt;相对方资质申请Offer关联表&lt;br&gt;&lt;/p&gt;&lt;hr&gt;&amp;nbsp;&amp;nbsp;&lt;br&gt;&lt;p style=&quot;margin: 0px; margin-left: 8px;&quot;&gt;&lt;br&gt;&lt;/p&gt;" style="verticalAlign=top;align=left;overflow=fill;fontSize=12;fontFamily=Helvetica;html=1;strokeColor=#003366;shadow=1;fillColor=#D4E1F5;fontColor=#003366" vertex="1" parent="1">
          <mxGeometry x="380" y="470" width="160" height="70" as="geometry" />
        </mxCell>
        <mxCell id="BSF3eEj6T0vC_s2HLx2t-12" value="" style="endArrow=open;html=1;endSize=12;startArrow=diamondThin;startSize=14;startFill=0;edgeStyle=orthogonalEdgeStyle;rounded=0;entryX=0.5;entryY=1;entryDx=0;entryDy=0;" edge="1" parent="1" source="BSF3eEj6T0vC_s2HLx2t-11" target="BSF3eEj6T0vC_s2HLx2t-10">
          <mxGeometry x="0.0495" y="-7" relative="1" as="geometry">
            <mxPoint x="720" y="120" as="sourcePoint" />
            <mxPoint x="540" y="205" as="targetPoint" />
            <mxPoint x="1" y="1" as="offset" />
          </mxGeometry>
        </mxCell>
        <mxCell id="BSF3eEj6T0vC_s2HLx2t-13" value="0..n" style="edgeLabel;resizable=0;html=1;align=left;verticalAlign=top;" connectable="0" vertex="1" parent="BSF3eEj6T0vC_s2HLx2t-12">
          <mxGeometry x="-1" relative="1" as="geometry">
            <mxPoint x="10" y="-25" as="offset" />
          </mxGeometry>
        </mxCell>
        <mxCell id="BSF3eEj6T0vC_s2HLx2t-14" value="1" style="edgeLabel;resizable=0;html=1;align=right;verticalAlign=top;" connectable="0" vertex="1" parent="BSF3eEj6T0vC_s2HLx2t-12">
          <mxGeometry x="1" relative="1" as="geometry">
            <mxPoint x="18" as="offset" />
          </mxGeometry>
        </mxCell>
        <mxCell id="BSF3eEj6T0vC_s2HLx2t-15" value="&lt;p style=&quot;margin: 4px 0px 0px; text-align: center;&quot;&gt;&lt;b&gt;&lt;u&gt;ContractApiLog&lt;/u&gt;&lt;/b&gt;&lt;br&gt;&lt;/p&gt;&lt;p style=&quot;margin: 4px 0px 0px; text-align: center;&quot;&gt;合同接口日志表&lt;br&gt;&lt;/p&gt;&lt;hr&gt;&amp;nbsp;&amp;nbsp;&lt;br&gt;&lt;p style=&quot;margin: 0px; margin-left: 8px;&quot;&gt;&lt;br&gt;&lt;/p&gt;" style="verticalAlign=top;align=left;overflow=fill;fontSize=12;fontFamily=Helvetica;html=1;strokeColor=#003366;shadow=1;fillColor=#D4E1F5;fontColor=#003366" vertex="1" parent="1">
          <mxGeometry x="640" y="310" width="160" height="70" as="geometry" />
        </mxCell>
      </root>
    </mxGraphModel>
  </diagram>
  <diagram id="MSvnXd_8xX-84bcYxrX6" name="风控">
    <mxGraphModel dx="1050" dy="617" grid="1" gridSize="10" guides="1" tooltips="1" connect="1" arrows="1" fold="1" page="1" pageScale="1" pageWidth="827" pageHeight="1169" math="0" shadow="0">
      <root>
        <mxCell id="0" />
        <mxCell id="1" parent="0" />
        <mxCell id="Szh9pE1fkoV7iwkc8_5l-1" value="&lt;p style=&quot;margin: 4px 0px 0px; text-align: center;&quot;&gt;&lt;b&gt;&lt;u&gt;SourceReview&lt;/u&gt;&lt;/b&gt;&lt;br&gt;&lt;/p&gt;&lt;p style=&quot;margin: 4px 0px 0px; text-align: center;&quot;&gt;素材审核表&lt;br&gt;&lt;/p&gt;&lt;hr&gt;&amp;nbsp;&amp;nbsp;&lt;br&gt;&lt;p style=&quot;margin: 0px; margin-left: 8px;&quot;&gt;&lt;br&gt;&lt;/p&gt;" style="verticalAlign=top;align=left;overflow=fill;fontSize=12;fontFamily=Helvetica;html=1;strokeColor=#003366;shadow=1;fillColor=#D4E1F5;fontColor=#003366" vertex="1" parent="1">
          <mxGeometry x="370" y="160" width="160" height="70" as="geometry" />
        </mxCell>
        <mxCell id="Szh9pE1fkoV7iwkc8_5l-2" value="&lt;p style=&quot;margin: 4px 0px 0px; text-align: center;&quot;&gt;&lt;b&gt;&lt;u&gt;SourceReviewResult&lt;/u&gt;&lt;/b&gt;&lt;br&gt;&lt;/p&gt;&lt;p style=&quot;margin: 4px 0px 0px; text-align: center;&quot;&gt;素材审核结果表&lt;br&gt;&lt;/p&gt;&lt;hr&gt;&amp;nbsp;&amp;nbsp;&lt;br&gt;&lt;p style=&quot;margin: 0px; margin-left: 8px;&quot;&gt;&lt;br&gt;&lt;/p&gt;" style="verticalAlign=top;align=left;overflow=fill;fontSize=12;fontFamily=Helvetica;html=1;strokeColor=#003366;shadow=1;fillColor=#D4E1F5;fontColor=#003366" vertex="1" parent="1">
          <mxGeometry x="130" y="290" width="160" height="70" as="geometry" />
        </mxCell>
        <mxCell id="Szh9pE1fkoV7iwkc8_5l-3" value="&lt;p style=&quot;margin: 4px 0px 0px; text-align: center;&quot;&gt;&lt;b&gt;&lt;u&gt;SourceContent&lt;/u&gt;&lt;/b&gt;&lt;br&gt;&lt;/p&gt;&lt;p style=&quot;margin: 4px 0px 0px; text-align: center;&quot;&gt;素材内容表&lt;br&gt;&lt;/p&gt;&lt;hr&gt;&amp;nbsp;&amp;nbsp;&lt;br&gt;&lt;p style=&quot;margin: 0px; margin-left: 8px;&quot;&gt;&lt;br&gt;&lt;/p&gt;" style="verticalAlign=top;align=left;overflow=fill;fontSize=12;fontFamily=Helvetica;html=1;strokeColor=#003366;shadow=1;fillColor=#D4E1F5;fontColor=#003366" vertex="1" parent="1">
          <mxGeometry x="580" y="290" width="160" height="70" as="geometry" />
        </mxCell>
        <mxCell id="Szh9pE1fkoV7iwkc8_5l-4" value="" style="endArrow=open;html=1;endSize=12;startArrow=diamondThin;startSize=14;startFill=0;edgeStyle=orthogonalEdgeStyle;rounded=0;entryX=1;entryY=0.5;entryDx=0;entryDy=0;exitX=0.5;exitY=0;exitDx=0;exitDy=0;" edge="1" parent="1" source="Szh9pE1fkoV7iwkc8_5l-3" target="Szh9pE1fkoV7iwkc8_5l-1">
          <mxGeometry relative="1" as="geometry">
            <mxPoint x="410" y="380" as="sourcePoint" />
            <mxPoint x="570" y="380" as="targetPoint" />
          </mxGeometry>
        </mxCell>
        <mxCell id="Szh9pE1fkoV7iwkc8_5l-5" value="0..n" style="edgeLabel;resizable=0;html=1;align=left;verticalAlign=top;" connectable="0" vertex="1" parent="Szh9pE1fkoV7iwkc8_5l-4">
          <mxGeometry x="-1" relative="1" as="geometry">
            <mxPoint x="4" y="-24" as="offset" />
          </mxGeometry>
        </mxCell>
        <mxCell id="Szh9pE1fkoV7iwkc8_5l-6" value="1" style="edgeLabel;resizable=0;html=1;align=right;verticalAlign=top;" connectable="0" vertex="1" parent="Szh9pE1fkoV7iwkc8_5l-4">
          <mxGeometry x="1" relative="1" as="geometry">
            <mxPoint x="17" as="offset" />
          </mxGeometry>
        </mxCell>
        <mxCell id="Szh9pE1fkoV7iwkc8_5l-7" value="" style="endArrow=open;html=1;endSize=12;startArrow=diamondThin;startSize=14;startFill=0;edgeStyle=orthogonalEdgeStyle;rounded=0;entryX=0;entryY=0.5;entryDx=0;entryDy=0;exitX=0.5;exitY=0;exitDx=0;exitDy=0;" edge="1" parent="1" source="Szh9pE1fkoV7iwkc8_5l-2" target="Szh9pE1fkoV7iwkc8_5l-1">
          <mxGeometry relative="1" as="geometry">
            <mxPoint x="670" y="300" as="sourcePoint" />
            <mxPoint x="540" y="205" as="targetPoint" />
          </mxGeometry>
        </mxCell>
        <mxCell id="Szh9pE1fkoV7iwkc8_5l-8" value="0..n" style="edgeLabel;resizable=0;html=1;align=left;verticalAlign=top;" connectable="0" vertex="1" parent="Szh9pE1fkoV7iwkc8_5l-7">
          <mxGeometry x="-1" relative="1" as="geometry">
            <mxPoint x="4" y="-24" as="offset" />
          </mxGeometry>
        </mxCell>
        <mxCell id="Szh9pE1fkoV7iwkc8_5l-9" value="1" style="edgeLabel;resizable=0;html=1;align=right;verticalAlign=top;" connectable="0" vertex="1" parent="Szh9pE1fkoV7iwkc8_5l-7">
          <mxGeometry x="1" relative="1" as="geometry">
            <mxPoint x="-8" as="offset" />
          </mxGeometry>
        </mxCell>
        <mxCell id="Szh9pE1fkoV7iwkc8_5l-10" value="&lt;p style=&quot;margin: 4px 0px 0px; text-align: center;&quot;&gt;&lt;b&gt;&lt;u&gt;SourceOffer&lt;/u&gt;&lt;/b&gt;&lt;br&gt;&lt;/p&gt;&lt;p style=&quot;margin: 4px 0px 0px; text-align: center;&quot;&gt;素材关联offer表&lt;br&gt;&lt;/p&gt;&lt;hr&gt;&amp;nbsp;&amp;nbsp;sourceId&amp;nbsp; &amp;nbsp;&amp;nbsp;素材id&lt;br&gt;&lt;p style=&quot;margin: 0px; margin-left: 8px;&quot;&gt;offerId&amp;nbsp; &amp;nbsp; &amp;nbsp; &amp;nbsp;&amp;nbsp;offerId&lt;br&gt;&lt;/p&gt;" style="verticalAlign=top;align=left;overflow=fill;fontSize=12;fontFamily=Helvetica;html=1;strokeColor=#003366;shadow=1;fillColor=#D4E1F5;fontColor=#003366" vertex="1" parent="1">
          <mxGeometry x="370" y="413" width="160" height="80" as="geometry" />
        </mxCell>
        <mxCell id="Szh9pE1fkoV7iwkc8_5l-11" value="&lt;p style=&quot;margin: 4px 0px 0px; text-align: center;&quot;&gt;&lt;b&gt;&lt;u&gt;SourceDownloadLog&lt;/u&gt;&lt;/b&gt;&lt;br&gt;&lt;/p&gt;&lt;p style=&quot;margin: 4px 0px 0px; text-align: center;&quot;&gt;素材下载日志表&lt;br&gt;&lt;/p&gt;&lt;hr&gt;&amp;nbsp;&amp;nbsp;sourceId&amp;nbsp; &amp;nbsp;&amp;nbsp;素材id&lt;br&gt;&lt;p style=&quot;margin: 0px; margin-left: 8px;&quot;&gt;userId&amp;nbsp; &amp;nbsp; &amp;nbsp; &amp;nbsp;&amp;nbsp;下载的用户Id&lt;br&gt;&lt;/p&gt;" style="verticalAlign=top;align=left;overflow=fill;fontSize=12;fontFamily=Helvetica;html=1;strokeColor=#003366;shadow=1;fillColor=#D4E1F5;fontColor=#003366" vertex="1" parent="1">
          <mxGeometry x="370" y="570" width="160" height="80" as="geometry" />
        </mxCell>
      </root>
    </mxGraphModel>
  </diagram>
</mxfile>
